<?xml version="1.0" encoding="UTF-8" standalone="no"?>
<svg
   xmlns:dc="http://purl.org/dc/elements/1.1/"
   xmlns:cc="http://creativecommons.org/ns#"
   xmlns:rdf="http://www.w3.org/1999/02/22-rdf-syntax-ns#"
   xmlns:svg="http://www.w3.org/2000/svg"
   xmlns="http://www.w3.org/2000/svg"
   xmlns:xlink="http://www.w3.org/1999/xlink"
   xmlns:sodipodi="http://sodipodi.sourceforge.net/DTD/sodipodi-0.dtd"
   xmlns:inkscape="http://www.inkscape.org/namespaces/inkscape"
   width="280"
   height="32"
   viewBox="0 0 74.083332 8.466667"
   version="1.1"
   id="svg1761"
   inkscape:version="1.0.1 (3bc2e813f5, 2020-09-07)"
   sodipodi:docname="entertaining-logo-wordmark-dark.svg">
  <defs
     id="defs1755">
    <linearGradient
       inkscape:collect="always"
       xlink:href="#linearGradient896"
       id="linearGradient898"
       x1="5.2916665"
       y1="3.96875"
       x2="5.2916665"
       y2="5.0270834"
       gradientUnits="userSpaceOnUse"
       gradientTransform="translate(6.9146717,128.81429)" />
    <linearGradient
       inkscape:collect="always"
       id="linearGradient896">
      <stop
         style="stop-color:#c8c8c8;stop-opacity:1"
         offset="0"
         id="stop892" />
      <stop
         style="stop-color:#c8c8c8;stop-opacity:0"
         offset="1"
         id="stop894" />
    </linearGradient>
    <linearGradient
       inkscape:collect="always"
       xlink:href="#linearGradient896"
       id="linearGradient908"
       x1="3.96875"
       y1="5.2916665"
       x2="5.0270834"
       y2="6.3499999"
       gradientUnits="userSpaceOnUse"
       gradientTransform="translate(6.9146717,128.81429)" />
  </defs>
  <sodipodi:namedview
     id="base"
     pagecolor="#ffffff"
     bordercolor="#666666"
     borderopacity="1.0"
     inkscape:pageopacity="0.0"
     inkscape:pageshadow="2"
     inkscape:zoom="1.979899"
     inkscape:cx="74.691724"
     inkscape:cy="-57.494433"
     inkscape:document-units="mm"
     inkscape:current-layer="layer1"
     inkscape:document-rotation="0"
     showgrid="true"
     units="px"
     fit-margin-top="2"
     fit-margin-bottom="2"
     fit-margin-right="2"
     fit-margin-left="2"
     inkscape:window-width="1920"
     inkscape:window-height="1043"
     inkscape:window-x="2560"
     inkscape:window-y="0"
     inkscape:window-maximized="1">
    <inkscape:grid
       type="xygrid"
       id="grid3848"
       empspacing="4"
       originx="0"
       originy="0" />
    <inkscape:grid
       type="xygrid"
       id="grid3850"
       empspacing="1"
       originy="0.13229169"
       originx="0.13229167"
       dotted="true" />
  </sodipodi:namedview>
  <metadata
     id="metadata1758">
    <rdf:RDF>
      <cc:Work
         rdf:about="">
        <dc:format>image/svg+xml</dc:format>
        <dc:type
           rdf:resource="http://purl.org/dc/dcmitype/StillImage" />
        <dc:title></dc:title>
      </cc:Work>
    </rdf:RDF>
  </metadata>
  <g
     inkscape:label="Layer 1"
     inkscape:groupmode="layer"
     id="layer1"
     transform="translate(-6.9146719,-128.81428)">
    <g
       aria-label="Entertaining Games"
       id="text841-3"
       style="font-style:normal;font-variant:normal;font-weight:normal;font-stretch:normal;font-size:6.80469px;line-height:1.25;font-family:Contemporary;-inkscape-font-specification:Contemporary;fill:#ffffff;fill-opacity:1;stroke-width:0.264583">
      <path
         d="m 18.421379,133.14126 h 2.082235 q 0.07485,0 0.129289,-0.0544 0.05444,-0.0544 0.05444,-0.12929 v -0.24497 q 0,-0.0748 -0.05444,-0.12929 -0.05444,-0.0544 -0.129289,-0.0544 h -2.082235 v -1.43579 h 2.231938 q 0.07485,0 0.129289,-0.0544 0.05444,-0.0544 0.05444,-0.12929 v -0.24496 q 0,-0.0749 -0.05444,-0.12929 -0.05444,-0.0544 -0.129289,-0.0544 H 17.95866 q -0.07485,0 -0.129289,0.0544 -0.05444,0.0544 -0.05444,0.12929 v 4.39583 q 0,0.0748 0.05444,0.12928 0.05444,0.0544 0.129289,0.0544 h 2.749094 q 0.07485,0 0.129289,-0.0544 0.05444,-0.0544 0.05444,-0.12928 v -0.24497 q 0,-0.0749 -0.05444,-0.12929 -0.05444,-0.0544 -0.129289,-0.0544 h -2.286375 z"
         style="font-style:normal;font-variant:normal;font-weight:normal;font-stretch:normal;font-family:Contemporary;-inkscape-font-specification:Contemporary;fill:#ffffff;fill-opacity:1;stroke-width:0.264583"
         id="path4796" />
      <path
         d="m 24.872218,135.06019 q 0,0.0748 -0.05444,0.12928 -0.05444,0.0544 -0.12929,0.0544 h -0.251773 q -0.07485,0 -0.129289,-0.0544 -0.05444,-0.0544 -0.05444,-0.12928 v -1.79644 q 0,-0.51035 -0.251773,-0.77574 -0.251774,-0.26538 -0.700883,-0.26538 -0.442305,0 -0.700883,0.26538 -0.251774,0.26539 -0.251774,0.77574 v 1.79644 q 0,0.0748 -0.05444,0.12928 -0.05444,0.0544 -0.12929,0.0544 h -0.251773 q -0.07485,0 -0.129289,-0.0544 -0.05444,-0.0544 -0.05444,-0.12928 v -3.17099 q 0,-0.0748 0.05444,-0.12929 0.05444,-0.0544 0.129289,-0.0544 h 0.251773 q 0.07485,0 0.12929,0.0544 0.05444,0.0544 0.05444,0.12929 v 0.21095 q 0.149703,-0.19734 0.408282,-0.32663 0.265382,-0.13609 0.646445,-0.13609 0.428696,0 0.762125,0.18372 0.33343,0.18373 0.517157,0.53077 0.190531,0.34023 0.190531,0.80976 z"
         style="font-style:normal;font-variant:normal;font-weight:normal;font-stretch:normal;font-family:Contemporary;-inkscape-font-specification:Contemporary;fill:#ffffff;fill-opacity:1;stroke-width:0.264583"
         id="path4798" />
      <path
         d="m 26.260355,135.06699 q 0,0.0748 0.06124,0.12929 0.06805,0.0476 0.142899,0.0476 h 0.251774 q 0.07485,0 0.129289,-0.0544 0.05444,-0.0544 0.05444,-0.12928 l -0.02041,-2.76951 h 0.714492 q 0.07485,0 0.12929,-0.0544 0.05444,-0.0544 0.05444,-0.12929 v -0.21775 q 0,-0.0748 -0.05444,-0.12929 -0.05444,-0.0544 -0.12929,-0.0544 h -0.714492 v -1.10916 q 0,-0.0748 -0.05444,-0.12929 -0.05444,-0.0544 -0.12929,-0.0544 h -0.251773 q -0.07485,0 -0.129289,0.0544 -0.05444,0.0544 -0.05444,0.12929 v 1.10916 h -0.65325 q -0.07485,0 -0.129289,0.0544 -0.05444,0.0544 -0.05444,0.12929 v 0.21775 q 0,0.0748 0.05444,0.12929 0.05444,0.0544 0.129289,0.0544 h 0.65325 z"
         style="font-style:normal;font-variant:normal;font-weight:normal;font-stretch:normal;font-family:Contemporary;-inkscape-font-specification:Contemporary;fill:#ffffff;fill-opacity:1;stroke-width:0.264583"
         id="path4800" />
      <path
         d="m 29.921276,131.63743 q 0.728102,0 1.149992,0.46272 0.421891,0.46271 0.421891,1.25886 v 0.18373 q 0,0.0748 -0.05444,0.12929 -0.05444,0.0544 -0.129289,0.0544 h -2.340814 v 0.0408 q 0.01361,0.44911 0.272188,0.70769 0.265383,0.25178 0.680469,0.25178 0.340234,0 0.523961,-0.0885 0.190531,-0.0885 0.340234,-0.25177 0.05444,-0.0544 0.09527,-0.0748 0.04763,-0.0204 0.122484,-0.0204 h 0.204141 q 0.08166,0 0.136094,0.0544 0.05444,0.0544 0.04763,0.12929 -0.02722,0.18373 -0.204141,0.38106 -0.170117,0.19054 -0.496742,0.32663 -0.319821,0.12929 -0.76893,0.12929 -0.4355,0 -0.775735,-0.19734 -0.340234,-0.20414 -0.544375,-0.55798 -0.197336,-0.35385 -0.238164,-0.79615 -0.01361,-0.20414 -0.01361,-0.31302 0,-0.10887 0.01361,-0.31301 0.04083,-0.42189 0.238164,-0.76213 0.204141,-0.34023 0.53757,-0.53757 0.340235,-0.19733 0.78254,-0.19733 z m 0.959461,1.51744 v -0.0204 q 0,-0.41509 -0.265383,-0.66006 -0.258578,-0.25177 -0.694078,-0.25177 -0.394672,0 -0.673665,0.25177 -0.272187,0.25178 -0.278992,0.66006 v 0.0204 z"
         style="font-style:normal;font-variant:normal;font-weight:normal;font-stretch:normal;font-family:Contemporary;-inkscape-font-specification:Contemporary;fill:#ffffff;fill-opacity:1;stroke-width:0.264583"
         id="path4802" />
      <path
         d="m 34.112959,131.70547 q 0.07485,0 0.129289,0.0544 0.05444,0.0544 0.05444,0.12929 v 0.21775 q 0,0.0748 -0.05444,0.12929 -0.05444,0.0544 -0.129289,0.0544 h -0.394672 q -0.381062,0 -0.585203,0.20414 -0.197336,0.19733 -0.197336,0.5784 v 1.98697 q 0,0.0748 -0.05444,0.12928 -0.05444,0.0544 -0.12929,0.0544 h -0.251773 q -0.07485,0 -0.129289,-0.0544 -0.05444,-0.0544 -0.05444,-0.12928 v -3.17099 q 0,-0.0748 0.05444,-0.12929 0.05444,-0.0544 0.129289,-0.0544 h 0.251773 q 0.07485,0 0.12929,0.0544 0.05444,0.0544 0.05444,0.12929 v 0.21095 q 0.136094,-0.20415 0.326625,-0.29941 0.190531,-0.0953 0.496743,-0.0953 z"
         style="font-style:normal;font-variant:normal;font-weight:normal;font-stretch:normal;font-family:Contemporary;-inkscape-font-specification:Contemporary;fill:#ffffff;fill-opacity:1;stroke-width:0.264583"
         id="path4804" />
      <path
         d="m 35.344598,135.06699 q 0,0.0748 0.06124,0.12929 0.06805,0.0476 0.142899,0.0476 h 0.251773 q 0.07485,0 0.129289,-0.0544 0.05444,-0.0544 0.05444,-0.12928 l -0.02041,-2.76951 h 0.714492 q 0.07485,0 0.129289,-0.0544 0.05444,-0.0544 0.05444,-0.12929 v -0.21775 q 0,-0.0748 -0.05444,-0.12929 -0.05444,-0.0544 -0.129289,-0.0544 h -0.714492 v -1.10916 q 0,-0.0748 -0.05444,-0.12929 -0.05444,-0.0544 -0.129289,-0.0544 h -0.251773 q -0.07485,0 -0.129289,0.0544 -0.05444,0.0544 -0.05444,0.12929 v 1.10916 h -0.65325 q -0.07485,0 -0.129289,0.0544 -0.05444,0.0544 -0.05444,0.12929 v 0.21775 q 0,0.0748 0.05444,0.12929 0.05444,0.0544 0.129289,0.0544 h 0.65325 z"
         style="font-style:normal;font-variant:normal;font-weight:normal;font-stretch:normal;font-family:Contemporary;-inkscape-font-specification:Contemporary;fill:#ffffff;fill-opacity:1;stroke-width:0.264583"
         id="path4806" />
      <path
         d="m 39.713205,133.00517 v -0.0885 q 0,-0.33343 -0.224554,-0.51035 -0.21775,-0.18373 -0.571594,-0.18373 -0.272188,0 -0.428696,0.0953 -0.149703,0.0885 -0.285797,0.27218 -0.04083,0.0544 -0.08846,0.0748 -0.04763,0.0204 -0.129289,0.0204 h -0.204141 q -0.07485,0 -0.136093,-0.0544 -0.05444,-0.0544 -0.04763,-0.12929 0.02041,-0.20414 0.197336,-0.40147 0.183726,-0.20415 0.483133,-0.33343 0.299406,-0.12929 0.639641,-0.12929 0.632836,0 1.020703,0.35384 0.394672,0.35384 0.394672,0.99348 v 2.07544 q 0,0.0748 -0.05444,0.12928 -0.05444,0.0544 -0.129289,0.0544 h -0.251774 q -0.07485,0 -0.129289,-0.0544 -0.05444,-0.0544 -0.05444,-0.12928 v -0.279 q -0.108875,0.24497 -0.462719,0.38787 -0.353843,0.1429 -0.707687,0.1429 -0.347039,0 -0.619227,-0.12249 -0.272188,-0.12928 -0.421891,-0.34703 -0.142898,-0.21776 -0.142898,-0.48994 0,-0.51035 0.381062,-0.79615 0.381063,-0.2926 1.013899,-0.39467 z m 0,0.54437 -0.802953,0.12929 q -0.442305,0.068 -0.687274,0.22456 -0.244969,0.1497 -0.244969,0.38106 0,0.17012 0.156508,0.30621 0.156508,0.1361 0.476329,0.1361 0.489937,0 0.796148,-0.279 0.306211,-0.27899 0.306211,-0.7281 z"
         style="font-style:normal;font-variant:normal;font-weight:normal;font-stretch:normal;font-family:Contemporary;-inkscape-font-specification:Contemporary;fill:#ffffff;fill-opacity:1;stroke-width:0.264583"
         id="path4808" />
      <path
         d="m 42.013187,131.04542 q 0,0.0748 -0.05444,0.12929 -0.05444,0.0544 -0.129289,0.0544 h -0.387867 q -0.07485,0 -0.129289,-0.0544 -0.05444,-0.0544 -0.05444,-0.12929 v -0.38787 q 0,-0.0748 0.05444,-0.12929 0.05444,-0.0544 0.129289,-0.0544 h 0.387867 q 0.07485,0 0.129289,0.0544 0.05444,0.0544 0.05444,0.12929 z m -0.06805,4.01477 q 0,0.0748 -0.05444,0.12928 -0.05444,0.0544 -0.129289,0.0544 H 41.50964 q -0.07485,0 -0.129289,-0.0544 -0.05444,-0.0544 -0.05444,-0.12928 v -3.17099 q 0,-0.0748 0.05444,-0.12929 0.05444,-0.0544 0.129289,-0.0544 h 0.251773 q 0.07485,0 0.129289,0.0544 0.05444,0.0544 0.05444,0.12929 z"
         style="font-style:normal;font-variant:normal;font-weight:normal;font-stretch:normal;font-family:Contemporary;-inkscape-font-specification:Contemporary;fill:#ffffff;fill-opacity:1;stroke-width:0.264583"
         id="path4810" />
      <path
         d="m 46.109605,135.06019 q 0,0.0748 -0.05444,0.12928 -0.05444,0.0544 -0.129289,0.0544 h -0.251773 q -0.07485,0 -0.129289,-0.0544 -0.05444,-0.0544 -0.05444,-0.12928 v -1.79644 q 0,-0.51035 -0.251774,-0.77574 -0.251773,-0.26538 -0.700883,-0.26538 -0.442304,0 -0.700883,0.26538 -0.251773,0.26539 -0.251773,0.77574 v 1.79644 q 0,0.0748 -0.05444,0.12928 -0.05444,0.0544 -0.129289,0.0544 h -0.251773 q -0.07485,0 -0.129289,-0.0544 -0.05444,-0.0544 -0.05444,-0.12928 v -3.17099 q 0,-0.0748 0.05444,-0.12929 0.05444,-0.0544 0.129289,-0.0544 h 0.251773 q 0.07485,0 0.129289,0.0544 0.05444,0.0544 0.05444,0.12929 v 0.21095 q 0.149703,-0.19734 0.408281,-0.32663 0.265383,-0.13609 0.646446,-0.13609 0.428695,0 0.762125,0.18372 0.33343,0.18373 0.517156,0.53077 0.190532,0.34023 0.190532,0.80976 z"
         style="font-style:normal;font-variant:normal;font-weight:normal;font-stretch:normal;font-family:Contemporary;-inkscape-font-specification:Contemporary;fill:#ffffff;fill-opacity:1;stroke-width:0.264583"
         id="path4812" />
      <path
         d="m 47.783548,131.04542 q 0,0.0748 -0.05444,0.12929 -0.05444,0.0544 -0.129289,0.0544 h -0.387867 q -0.07485,0 -0.129289,-0.0544 -0.05444,-0.0544 -0.05444,-0.12929 v -0.38787 q 0,-0.0748 0.05444,-0.12929 0.05444,-0.0544 0.129289,-0.0544 h 0.387867 q 0.07485,0 0.129289,0.0544 0.05444,0.0544 0.05444,0.12929 z m -0.06805,4.01477 q 0,0.0748 -0.05444,0.12928 -0.05444,0.0544 -0.129289,0.0544 h -0.251773 q -0.07485,0 -0.129289,-0.0544 -0.05444,-0.0544 -0.05444,-0.12928 v -3.17099 q 0,-0.0748 0.05444,-0.12929 0.05444,-0.0544 0.129289,-0.0544 h 0.251773 q 0.07485,0 0.129289,0.0544 0.05444,0.0544 0.05444,0.12929 z"
         style="font-style:normal;font-variant:normal;font-weight:normal;font-stretch:normal;font-family:Contemporary;-inkscape-font-specification:Contemporary;fill:#ffffff;fill-opacity:1;stroke-width:0.264583"
         id="path4814" />
      <path
         d="m 51.879966,135.06019 q 0,0.0748 -0.05444,0.12928 -0.05444,0.0544 -0.129289,0.0544 h -0.251773 q -0.07485,0 -0.12929,-0.0544 -0.05444,-0.0544 -0.05444,-0.12928 v -1.79644 q 0,-0.51035 -0.251774,-0.77574 -0.251773,-0.26538 -0.700883,-0.26538 -0.442304,0 -0.700883,0.26538 -0.251773,0.26539 -0.251773,0.77574 v 1.79644 q 0,0.0748 -0.05444,0.12928 -0.05444,0.0544 -0.129289,0.0544 h -0.251773 q -0.07485,0 -0.129289,-0.0544 -0.05444,-0.0544 -0.05444,-0.12928 v -3.17099 q 0,-0.0748 0.05444,-0.12929 0.05444,-0.0544 0.129289,-0.0544 h 0.251773 q 0.07485,0 0.129289,0.0544 0.05444,0.0544 0.05444,0.12929 v 0.21095 q 0.149703,-0.19734 0.408281,-0.32663 0.265383,-0.13609 0.646446,-0.13609 0.428695,0 0.762125,0.18372 0.33343,0.18373 0.517156,0.53077 0.190532,0.34023 0.190532,0.80976 z"
         style="font-style:normal;font-variant:normal;font-weight:normal;font-stretch:normal;font-family:Contemporary;-inkscape-font-specification:Contemporary;fill:#ffffff;fill-opacity:1;stroke-width:0.264583"
         id="path4816" />
      <path
         d="m 54.241182,131.63743 q 0.381063,0 0.639641,0.13609 0.265383,0.12929 0.415086,0.32663 v -0.21095 q 0,-0.0748 0.05444,-0.12929 0.05444,-0.0544 0.129289,-0.0544 h 0.251773 q 0.07485,0 0.129289,0.0544 0.05444,0.0544 0.05444,0.12929 v 3.30708 q 0,0.7213 -0.408281,1.12958 -0.408282,0.41508 -1.197626,0.41508 -0.510352,0 -0.857391,-0.1565 -0.347039,-0.15651 -0.517156,-0.38787 -0.163313,-0.23136 -0.176922,-0.46953 -0.0068,-0.0748 0.04763,-0.12928 0.06124,-0.0544 0.136094,-0.0544 h 0.20414 q 0.08166,0 0.129289,0.0408 0.04763,0.0408 0.09527,0.14289 0.06805,0.15651 0.258578,0.29261 0.190532,0.13609 0.612422,0.13609 1.054727,0 1.054727,-0.8778 v -0.4287 q -0.347039,0.46272 -1.054727,0.46272 -0.42189,0 -0.76893,-0.19734 -0.340234,-0.19733 -0.55118,-0.55798 -0.20414,-0.36746 -0.224554,-0.85739 l -0.0068,-0.22456 0.0068,-0.22455 q 0.02041,-0.48994 0.224554,-0.85059 0.210946,-0.36745 0.55118,-0.56479 0.340235,-0.19733 0.76893,-0.19733 z m 0.06805,0.5852 q -0.442305,0 -0.707688,0.2858 -0.258578,0.28579 -0.285797,0.77573 l -0.0068,0.19053 0.0068,0.19053 q 0.02722,0.48994 0.285797,0.77574 0.265383,0.2858 0.707688,0.2858 0.4355,0 0.700883,-0.26539 0.265383,-0.27219 0.285797,-0.74171 0.0068,-0.068 0.0068,-0.24497 0,-0.17692 -0.0068,-0.24497 -0.02041,-0.47632 -0.285797,-0.74171 -0.265383,-0.26538 -0.700883,-0.26538 z"
         style="font-style:normal;font-variant:normal;font-weight:normal;font-stretch:normal;font-family:Contemporary;-inkscape-font-specification:Contemporary;fill:#ffffff;fill-opacity:1;stroke-width:0.264583"
         id="path4818" />
      <path
         d="m 60.440248,130.41258 q 0.578398,0 1.000289,0.21775 0.421891,0.21095 0.639641,0.52396 0.224555,0.30621 0.238164,0.5716 0.0068,0.0612 -0.04083,0.10887 -0.04763,0.0408 -0.108875,0.0408 h -0.278992 q -0.156508,0 -0.197336,-0.0748 -0.197336,-0.38106 -0.476329,-0.5784 -0.272187,-0.19734 -0.775734,-0.19734 -0.571594,0 -0.925438,0.32663 -0.353844,0.31982 -0.374258,0.92544 -0.0068,0.20414 -0.0068,0.56479 0,0.36064 0.0068,0.56479 0.02041,0.63964 0.367453,0.96626 0.353844,0.32663 0.932243,0.32663 0.592008,0 0.945852,-0.30621 0.353843,-0.31302 0.353843,-0.97988 v -0.19053 h -0.979875 q -0.07485,0 -0.129289,-0.0544 -0.05444,-0.0544 -0.05444,-0.12929 v -0.24497 q 0,-0.0748 0.05444,-0.12929 0.05444,-0.0544 0.129289,-0.0544 h 1.442594 q 0.07485,0 0.129289,0.0544 0.05444,0.0544 0.05444,0.12929 v 0.64645 q 0,0.54437 -0.231359,0.97307 -0.23136,0.42189 -0.673665,0.66005 -0.4355,0.23817 -1.041117,0.23817 -0.939048,0 -1.428985,-0.51716 -0.489938,-0.52396 -0.517157,-1.35413 -0.0068,-0.20414 -0.0068,-0.59881 0,-0.39468 0.0068,-0.59882 0.02041,-0.52396 0.23136,-0.93224 0.21775,-0.41509 0.646445,-0.65325 0.435501,-0.24497 1.068337,-0.24497 z"
         style="font-style:normal;font-variant:normal;font-weight:normal;font-stretch:normal;font-family:Contemporary;-inkscape-font-specification:Contemporary;fill:#ffffff;fill-opacity:1;stroke-width:0.264583"
         id="path4820" />
      <path
         d="m 65.353222,133.00517 v -0.0885 q 0,-0.33343 -0.224555,-0.51035 -0.21775,-0.18373 -0.571594,-0.18373 -0.272187,0 -0.428695,0.0953 -0.149703,0.0885 -0.285797,0.27218 -0.04083,0.0544 -0.08846,0.0748 -0.04763,0.0204 -0.129289,0.0204 H 63.42069 q -0.07485,0 -0.136094,-0.0544 -0.05444,-0.0544 -0.04763,-0.12929 0.02041,-0.20414 0.197336,-0.40147 0.183727,-0.20415 0.483133,-0.33343 0.299407,-0.12929 0.639641,-0.12929 0.632836,0 1.020704,0.35384 0.394672,0.35384 0.394672,0.99348 v 2.07544 q 0,0.0748 -0.05444,0.12928 -0.05444,0.0544 -0.129289,0.0544 h -0.251773 q -0.07485,0 -0.12929,-0.0544 -0.05444,-0.0544 -0.05444,-0.12928 v -0.279 q -0.108875,0.24497 -0.462719,0.38787 -0.353844,0.1429 -0.707688,0.1429 -0.347039,0 -0.619227,-0.12249 -0.272187,-0.12928 -0.42189,-0.34703 -0.142899,-0.21776 -0.142899,-0.48994 0,-0.51035 0.381063,-0.79615 0.381063,-0.2926 1.013899,-0.39467 z m 0,0.54437 -0.802953,0.12929 q -0.442305,0.068 -0.687274,0.22456 -0.244969,0.1497 -0.244969,0.38106 0,0.17012 0.156508,0.30621 0.156508,0.1361 0.476328,0.1361 0.489938,0 0.796149,-0.279 0.306211,-0.27899 0.306211,-0.7281 z"
         style="font-style:normal;font-variant:normal;font-weight:normal;font-stretch:normal;font-family:Contemporary;-inkscape-font-specification:Contemporary;fill:#ffffff;fill-opacity:1;stroke-width:0.264583"
         id="path4822" />
      <path
         d="m 67.585158,132.10015 q 0.163313,-0.21095 0.367454,-0.33343 0.20414,-0.12929 0.544375,-0.12929 0.796148,0 1.115969,0.592 0.197336,-0.28579 0.449109,-0.4355 0.251774,-0.1565 0.660055,-0.1565 0.66686,0 0.98668,0.40147 0.326625,0.40148 0.326625,1.13639 v 1.8849 q 0,0.0748 -0.05444,0.12928 -0.05444,0.0544 -0.129289,0.0544 h -0.251774 q -0.07485,0 -0.129289,-0.0544 -0.05444,-0.0544 -0.05444,-0.12928 v -1.81686 q 0,-1.0207 -0.802954,-1.0207 -0.367453,0 -0.585203,0.24497 -0.21775,0.24497 -0.21775,0.7281 v 1.86449 q 0,0.0748 -0.05444,0.12928 -0.05444,0.0544 -0.129289,0.0544 h -0.251773 q -0.07485,0 -0.129289,-0.0544 -0.05444,-0.0544 -0.05444,-0.12928 v -1.81686 q 0,-1.0207 -0.802953,-1.0207 -0.367454,0 -0.585204,0.24497 -0.21775,0.24497 -0.21775,0.7281 v 1.86449 q 0,0.0748 -0.05444,0.12928 -0.05444,0.0544 -0.129289,0.0544 h -0.251774 q -0.07485,0 -0.129289,-0.0544 -0.05444,-0.0544 -0.05444,-0.12928 v -3.17099 q 0,-0.0748 0.05444,-0.12929 0.05444,-0.0544 0.129289,-0.0544 h 0.251774 q 0.07485,0 0.129289,0.0544 0.05444,0.0544 0.05444,0.12929 z"
         style="font-style:normal;font-variant:normal;font-weight:normal;font-stretch:normal;font-family:Contemporary;-inkscape-font-specification:Contemporary;fill:#ffffff;fill-opacity:1;stroke-width:0.264583"
         id="path4824" />
      <path
         d="m 74.417061,131.63743 q 0.728101,0 1.149992,0.46272 0.421891,0.46271 0.421891,1.25886 v 0.18373 q 0,0.0748 -0.05444,0.12929 -0.05444,0.0544 -0.129289,0.0544 h -2.340813 v 0.0408 q 0.01361,0.44911 0.272188,0.70769 0.265382,0.25178 0.680469,0.25178 0.340234,0 0.523961,-0.0885 0.190531,-0.0885 0.340234,-0.25177 0.05444,-0.0544 0.09527,-0.0748 0.04763,-0.0204 0.122484,-0.0204 h 0.204141 q 0.08166,0 0.136094,0.0544 0.05444,0.0544 0.04763,0.12929 -0.02722,0.18373 -0.204141,0.38106 -0.170117,0.19054 -0.496743,0.32663 -0.31982,0.12929 -0.768929,0.12929 -0.435501,0 -0.775735,-0.19734 -0.340235,-0.20414 -0.544375,-0.55798 -0.197336,-0.35385 -0.238164,-0.79615 -0.01361,-0.20414 -0.01361,-0.31302 0,-0.10887 0.01361,-0.31301 0.04083,-0.42189 0.238164,-0.76213 0.20414,-0.34023 0.53757,-0.53757 0.340235,-0.19733 0.78254,-0.19733 z m 0.959461,1.51744 v -0.0204 q 0,-0.41509 -0.265383,-0.66006 -0.258578,-0.25177 -0.694078,-0.25177 -0.394672,0 -0.673665,0.25177 -0.272187,0.25178 -0.278992,0.66006 v 0.0204 z"
         style="font-style:normal;font-variant:normal;font-weight:normal;font-stretch:normal;font-family:Contemporary;-inkscape-font-specification:Contemporary;fill:#ffffff;fill-opacity:1;stroke-width:0.264583"
         id="path4826" />
      <path
         d="m 77.662892,133.67203 q -0.993484,-0.21095 -0.993484,-1.0139 0,-0.27899 0.149703,-0.51035 0.149703,-0.23136 0.442305,-0.36746 0.299406,-0.14289 0.728101,-0.14289 0.421891,0 0.728102,0.12248 0.306211,0.12248 0.462719,0.30621 0.163313,0.18373 0.163313,0.35385 0,0.068 -0.05444,0.12248 -0.05444,0.0476 -0.129289,0.0476 h -0.224555 q -0.129289,0 -0.20414,-0.0953 -0.210946,-0.27219 -0.741712,-0.27219 -0.313015,0 -0.510351,0.11568 -0.190532,0.11568 -0.190532,0.31982 0,0.17012 0.09527,0.25858 0.09527,0.0885 0.285797,0.1429 0.190531,0.0544 0.673664,0.16331 0.598813,0.12929 0.850586,0.39467 0.251774,0.26538 0.251774,0.64645 0,0.27899 -0.176922,0.51715 -0.170117,0.23817 -0.496742,0.38787 -0.319821,0.1429 -0.748516,0.1429 -0.421891,0 -0.748516,-0.12929 -0.319821,-0.13609 -0.496742,-0.32663 -0.176922,-0.19053 -0.176922,-0.36064 0,-0.068 0.05444,-0.11568 0.05444,-0.0544 0.129289,-0.0544 h 0.244969 q 0.06124,0 0.108875,0.0136 0.04763,0.0136 0.08846,0.0748 0.224555,0.31302 0.796149,0.31302 0.31982,0 0.557984,-0.12929 0.244969,-0.1361 0.244969,-0.33343 0,-0.16332 -0.122484,-0.25858 -0.11568,-0.10207 -0.340235,-0.16331 -0.224554,-0.068 -0.700883,-0.17012 z"
         style="font-style:normal;font-variant:normal;font-weight:normal;font-stretch:normal;font-family:Contemporary;-inkscape-font-specification:Contemporary;fill:#ffffff;fill-opacity:1;stroke-width:0.264583"
         id="path4828" />
    </g>
    <rect
       style="opacity:1;fill:#ffffff;fill-opacity:1;stroke:none;stroke-width:0.264999;stroke-linecap:round;stroke-linejoin:round"
       id="rect871"
       width="7.4083333"
       height="7.4083333"
       x="7.4438386"
       y="129.34344"
       ry="0.52916676" />
    <path
       style="fill:#00af00;fill-opacity:1;stroke:none;stroke-width:0.264583px;stroke-linecap:butt;stroke-linejoin:miter;stroke-opacity:1"
       d="m 10.354255,132.78304 1.852083,-1.85209 1.852084,1.85209 z"
       id="path873-6" />
    <path
       style="fill:url(#linearGradient898);fill-opacity:1;stroke:none;stroke-width:0.264583px;stroke-linecap:butt;stroke-linejoin:miter;stroke-opacity:1"
       d="m 10.354255,132.78304 1.058333,1.05833 h 3.439584 l -5.73e-4,-0.42379 -0.793177,-0.63454 z"
       id="path890"
       sodipodi:nodetypes="cccccc" />
    <path
       style="fill:#0096ff;fill-opacity:1;stroke:none;stroke-width:0.264583px;stroke-linecap:butt;stroke-linejoin:miter;stroke-opacity:1"
       d="m 7.9730051,133.3122 1.8520834,1.85209 1.8520835,-1.85209 z"
       id="path873" />
    <path
       style="fill:url(#linearGradient908);fill-opacity:1;stroke:none;stroke-width:0.264583px;stroke-linecap:butt;stroke-linejoin:miter;stroke-opacity:1"
       d="m 9.8250884,135.16429 h 1.0583336 1.852083 0.79375 l -1.852083,-1.85209 z"
       id="path900"
       sodipodi:nodetypes="cccccc" />
  </g>
</svg>
