<?xml version="1.0" encoding="UTF-8" standalone="no"?>
<!-- Created with Inkscape (http://www.inkscape.org/) -->

<svg
   width="256"
   height="128"
   viewBox="0 0 67.733331 33.866666"
   version="1.1"
   id="svg5"
   inkscape:export-filename="/home/victor/bitmap.png"
   inkscape:export-xdpi="96"
   inkscape:export-ydpi="96"
   inkscape:version="1.2 (dc2aedaf03, 2022-05-15)"
   sodipodi:docname="frivoloco.svg"
   xmlns:inkscape="http://www.inkscape.org/namespaces/inkscape"
   xmlns:sodipodi="http://sodipodi.sourceforge.net/DTD/sodipodi-0.dtd"
   xmlns="http://www.w3.org/2000/svg"
   xmlns:svg="http://www.w3.org/2000/svg">
  <sodipodi:namedview
     id="namedview7"
     pagecolor="#505050"
     bordercolor="#eeeeee"
     borderopacity="1"
     inkscape:pageshadow="0"
     inkscape:pageopacity="0"
     inkscape:pagecheckerboard="0"
     inkscape:document-units="px"
     showgrid="true"
     units="px"
     width="256px"
     inkscape:zoom="4.3994184"
     inkscape:cx="178.31902"
     inkscape:cy="65.690501"
     inkscape:window-width="2560"
     inkscape:window-height="1369"
     inkscape:window-x="3832"
     inkscape:window-y="723"
     inkscape:window-maximized="1"
     inkscape:current-layer="layer1"
     inkscape:showpageshadow="2"
     inkscape:deskcolor="#505050">
    <inkscape:grid
       type="xygrid"
       id="grid824"
       empspacing="4" />
  </sodipodi:namedview>
  <defs
     id="defs2" />
  <g
     inkscape:label="Layer 1"
     inkscape:groupmode="layer"
     id="layer1">
    <rect
       style="fill:#ffffff;fill-opacity:1;stroke-width:2.64583;stroke-linecap:round;stroke-linejoin:round"
       id="rect6136"
       width="67.73333"
       height="33.866665"
       x="0"
       y="0" />
    <g
       aria-label="F"
       id="text2731-7"
       style="font-size:23.3805px;line-height:1.25;font-family:Parisienne;-inkscape-font-specification:Parisienne;fill:#c8c8c8;stroke-width:0.264583">
      <path
         d="m 23.951885,10.899839 q -0.01142,0 -0.422402,0.410985 -0.410985,0.399569 -1.095961,1.232956 -0.684975,0.821971 -1.58686,2.089176 -0.890468,1.255788 -1.872266,2.968228 l -0.445235,0.776305 q 0.376737,-0.09133 0.76489,-0.171244 0.388153,-0.07991 0.787722,-0.148411 l 0.513732,-0.102746 q 0.36532,-0.662144 0.662143,-1.084545 0.308239,-0.422402 0.559396,-0.662143 0.262574,-0.251158 0.479483,-0.342488 0.216909,-0.09133 0.388153,-0.09133 0.216909,0 0.422402,0.148411 0.205492,0.148412 0.205492,0.536564 0,0.30824 -0.148411,0.593646 -0.148411,0.285407 -0.422402,0.536564 -0.27399,0.251158 -0.650726,0.445234 -0.376737,0.194077 -0.833387,0.308239 -0.216909,0.445235 -0.445234,0.936134 -0.228326,0.479483 -0.479483,0.970382 -0.251158,0.490899 -0.513732,0.970382 -0.262574,0.468067 -0.547981,0.890468 l -0.810554,-0.764889 q 0.102746,-0.125579 0.308239,-0.399569 0.216909,-0.273991 0.45665,-0.616478 0.251158,-0.342488 0.4909,-0.719225 0.239741,-0.388153 0.410985,-0.73064 l 0.159828,-0.342488 q -0.525148,0.114162 -1.061713,0.239741 -0.525148,0.114163 -1.084544,0.262574 -0.879052,1.506947 -1.723856,2.739903 -0.833387,1.22154 -1.780936,2.100592 -0.94755,0.867635 -2.07776,1.335702 -1.130209,0.479483 -2.6029069,0.479483 -0.9589659,0 -1.9407642,-0.27399 Q 7.0444038,25.158748 6.2566818,24.645016 5.4803761,24.131284 4.9780607,23.389227 4.4871615,22.647171 4.4871615,21.699621 q 0,-0.742057 0.2968228,-1.31287 0.2854065,-0.582229 0.7877219,-0.970382 0.5023154,-0.399569 1.1644585,-0.593646 0.6735594,-0.205492 1.4156163,-0.205492 0.616478,0 1.2329561,0.148411 0.6278939,0.148411 1.2101239,0.422402 0.582229,0.27399 1.095961,0.673559 0.525148,0.388153 0.936133,0.879052 l -0.433818,0.331072 Q 11.850649,20.729239 11.428248,20.466665 11.005846,20.192675 10.526363,20.010014 10.04688,19.815938 9.5445647,19.724608 9.0422493,19.621862 8.5513501,19.621862 q -0.5365642,0 -1.0502959,0.136995 -0.5137317,0.136995 -0.9133008,0.445234 -0.3995691,0.296823 -0.6507269,0.776306 -0.2511577,0.468066 -0.2511577,1.153042 0,0.616478 0.308239,1.153042 0.3082391,0.536564 0.833387,0.936133 0.5365642,0.388153 1.2443724,0.616478 0.7192244,0.228326 1.5297788,0.228326 1.153042,0 2.077759,-0.433818 0.924717,-0.422402 1.701023,-1.164459 0.787722,-0.742057 1.472698,-1.735271 0.696392,-1.004631 1.381367,-2.134841 -0.319655,0.102746 -0.650727,0.216909 -0.331071,0.114163 -0.662143,0.239741 l -0.216909,-0.559396 q 0.525148,-0.171244 1.004631,-0.319656 0.479483,-0.148411 0.958966,-0.296822 0.650727,-1.084545 1.347119,-2.214755 0.707808,-1.141626 1.541195,-2.226171 0.833387,-1.095961 1.826602,-2.089175 1.00463,-0.993215 2.237587,-1.803769 z m -7.705976,6.210445 q -1.050295,0.479483 -2.089175,0.696392 -1.03888,0.216909 -1.952181,0.216909 -1.061712,0 -1.940764,-0.285406 Q 9.3847371,17.452772 8.7454265,16.93904 8.106116,16.425309 7.7522119,15.706084 7.3983078,14.98686 7.3983078,14.119224 q 0,-1.084545 0.3653204,-1.929348 0.3767365,-0.844803 1.0160471,-1.484114 0.6393106,-0.650726 1.5069467,-1.0959606 0.867635,-0.4452341 1.86085,-0.7306406 0.993215,-0.2854065 2.066343,-0.4109854 1.073129,-0.1255789 2.123425,-0.1255789 1.210123,0 2.351749,0.1484114 1.141626,0.1484114 2.214755,0.3310716 1.084544,0.1712439 2.100591,0.3196552 1.016048,0.1484114 1.98643,0.1484114 1.107377,0 2.04351,-0.1712439 0.936134,-0.1712439 1.609693,-0.3767366 0.673559,-0.2169089 1.050296,-0.3881528 0.388153,-0.1826602 0.399569,-0.1826602 l 0.285407,0.525148 q -0.03425,0.022832 -0.445235,0.2169089 -0.410985,0.1826602 -1.118793,0.4109854 -0.696392,0.2169089 -1.666774,0.3995691 -0.970382,0.1712439 -2.134841,0.1712439 -1.084544,0 -2.089175,-0.1369951 Q 21.919791,9.6098014 20.892327,9.4385575 19.87628,9.2673136 18.780319,9.1303185 17.684358,8.9819071 16.417153,8.9819071 q -1.872266,0 -3.310715,0.3653203 -1.427033,0.3539041 -2.397415,1.0274636 -0.9589656,0.662143 -1.4498648,1.621109 -0.4908992,0.947549 -0.4908992,2.123424 0,0.810555 0.3082391,1.415616 0.3196553,0.605062 0.8448032,1.004631 0.5365647,0.399569 1.2215397,0.605062 0.696392,0.194077 1.449865,0.194077 0.662143,0 1.278621,-0.114163 0.616478,-0.114163 1.084545,-0.251158 0.468067,-0.148411 0.753473,-0.262574 0.285407,-0.125579 0.296823,-0.125579 z m 6.324609,-0.742057 q -0.194077,0 -0.445235,0.365321 -0.239741,0.353904 -0.536564,0.936133 0.353904,-0.136995 0.570813,-0.285406 0.216909,-0.148412 0.342488,-0.296823 0.125579,-0.148412 0.171244,-0.296823 0.04566,-0.148411 0.04566,-0.285406 0,-0.07991 -0.04566,-0.102747 -0.04566,-0.03425 -0.102746,-0.03425 z"
         id="path2271" />
    </g>
    <g
       aria-label="Frivolo"
       id="text2731"
       style="font-size:15.014px;line-height:1.25;font-family:Parisienne;-inkscape-font-specification:Parisienne;stroke-width:0.264583">
      <path
         d="m 29.769339,12.299501 q -0.0073,0 -0.271249,0.263918 -0.263918,0.256586 -0.703781,0.791753 -0.439863,0.527836 -1.019017,1.341583 -0.571822,0.806416 -1.202293,1.906075 l -0.285911,0.498511 q 0.241925,-0.05865 0.491181,-0.109965 0.249256,-0.05132 0.505843,-0.0953 l 0.329897,-0.06598 q 0.234594,-0.425201 0.425201,-0.69645 0.197939,-0.271249 0.359222,-0.425201 0.168614,-0.161283 0.307904,-0.219932 0.13929,-0.05865 0.249256,-0.05865 0.13929,0 0.271249,0.0953 0.131959,0.0953 0.131959,0.344559 0,0.197939 -0.0953,0.381215 -0.0953,0.183276 -0.271249,0.34456 -0.175945,0.161283 -0.41787,0.285911 -0.241924,0.124628 -0.535167,0.197938 -0.13929,0.285911 -0.285911,0.601147 -0.146621,0.307904 -0.307904,0.623139 -0.161283,0.315236 -0.329898,0.62314 -0.168614,0.300573 -0.35189,0.571822 l -0.520505,-0.49118 q 0.06598,-0.08064 0.197938,-0.256587 0.13929,-0.175946 0.293243,-0.395877 0.161283,-0.219932 0.315235,-0.461857 0.153952,-0.249256 0.263918,-0.469187 l 0.102635,-0.219932 q -0.337229,0.07331 -0.681788,0.153952 -0.337229,0.07331 -0.696451,0.168615 -0.564491,0.967699 -1.106989,1.759453 -0.535167,0.784423 -1.143644,1.348914 -0.608478,0.55716 -1.334252,0.857733 -0.725775,0.307904 -1.671481,0.307904 -0.615808,0 -1.246279,-0.175945 -0.62314,-0.168614 -1.128982,-0.498512 -0.498512,-0.329897 -0.821079,-0.806416 -0.315235,-0.476518 -0.315235,-1.084996 0,-0.476518 0.190607,-0.843071 0.183277,-0.373884 0.505843,-0.62314 0.322567,-0.256587 0.747768,-0.381214 0.432532,-0.131959 0.909051,-0.131959 0.395877,0 0.791754,0.0953 0.403208,0.0953 0.777091,0.271249 0.373884,0.175946 0.703782,0.432532 0.337228,0.249256 0.601146,0.564492 l -0.27858,0.2126 q -0.219932,-0.219931 -0.491181,-0.388546 -0.271249,-0.175945 -0.579153,-0.293242 -0.307904,-0.124628 -0.630471,-0.183276 -0.322566,-0.06598 -0.637801,-0.06598 -0.34456,0 -0.674458,0.08797 -0.329897,0.08797 -0.586484,0.285911 -0.256587,0.190608 -0.41787,0.498512 -0.161283,0.300573 -0.161283,0.740436 0,0.395877 0.197938,0.740437 0.197939,0.344559 0.535167,0.601146 0.34456,0.249256 0.799085,0.395877 0.461857,0.146621 0.982362,0.146621 0.740436,0 1.334251,-0.27858 0.593816,-0.271249 1.092328,-0.747767 0.505842,-0.476519 0.945706,-1.114321 0.447194,-0.645132 0.887057,-1.370907 -0.205269,0.06598 -0.41787,0.13929 -0.2126,0.07331 -0.425201,0.153952 l -0.13929,-0.359221 q 0.337228,-0.109966 0.645133,-0.20527 0.307904,-0.0953 0.615808,-0.190607 0.41787,-0.69645 0.865065,-1.422225 0.454525,-0.733105 0.989692,-1.429555 0.535167,-0.703782 1.172969,-1.341583 0.645133,-0.637802 1.436887,-1.158307 z m -4.948462,3.988093 q -0.674457,0.307905 -1.341583,0.447195 -0.667126,0.13929 -1.25361,0.13929 -0.681788,0 -1.246279,-0.183277 -0.564491,-0.183276 -0.975031,-0.513174 -0.410539,-0.329897 -0.637801,-0.791753 -0.227263,-0.461857 -0.227263,-1.019017 0,-0.69645 0.234594,-1.238948 0.241925,-0.542498 0.652464,-0.953037 0.410539,-0.41787 0.967699,-0.703782 0.55716,-0.285911 1.194962,-0.469187 0.637801,-0.183276 1.326921,-0.263918 0.689119,-0.08064 1.363576,-0.08064 0.777092,0 1.510197,0.0953 0.733106,0.0953 1.422225,0.212601 0.69645,0.109965 1.348914,0.205269 0.652464,0.0953 1.275603,0.0953 0.711113,0 1.312259,-0.109966 0.601146,-0.109966 1.033679,-0.241925 0.432532,-0.13929 0.674457,-0.249256 0.249256,-0.117296 0.256587,-0.117296 l 0.183276,0.337228 q -0.02199,0.01466 -0.285911,0.13929 -0.263918,0.117297 -0.718443,0.263918 -0.447195,0.13929 -1.070334,0.256587 -0.62314,0.109966 -1.370908,0.109966 -0.69645,0 -1.341583,-0.08797 -0.645132,-0.0953 -1.304927,-0.205269 -0.652464,-0.109966 -1.356246,-0.197939 -0.703781,-0.0953 -1.517528,-0.0953 -1.202293,0 -2.126006,0.234594 -0.916382,0.227263 -1.539521,0.659795 -0.615809,0.425201 -0.931044,1.04101 -0.315235,0.608477 -0.315235,1.363576 0,0.520505 0.197938,0.909051 0.20527,0.388546 0.542498,0.645133 0.34456,0.256586 0.784423,0.388545 0.447194,0.124628 0.931044,0.124628 0.425201,0 0.821078,-0.07331 0.395877,-0.07331 0.69645,-0.161283 0.300573,-0.0953 0.48385,-0.168615 0.183276,-0.08064 0.190607,-0.08064 z m 4.061405,-0.476518 q -0.124628,0 -0.285912,0.234594 -0.153952,0.227262 -0.344559,0.601146 0.227263,-0.08797 0.366553,-0.183276 0.13929,-0.0953 0.219931,-0.190608 0.08064,-0.0953 0.109966,-0.190607 0.02932,-0.0953 0.02932,-0.183277 0,-0.05132 -0.02932,-0.06598 -0.02932,-0.02199 -0.06598,-0.02199 z"
         id="path2274" />
      <path
         d="m 33.933378,18.450255 q -0.109966,0.161284 -0.263918,0.439864 -0.146621,0.271249 -0.344559,0.593815 -0.197939,0.315235 -0.439864,0.645133 -0.234593,0.329897 -0.520504,0.593815 -0.278581,0.263918 -0.608478,0.432533 -0.329897,0.168614 -0.703781,0.168614 -0.20527,0 -0.388546,-0.06598 -0.183277,-0.05865 -0.322567,-0.190607 -0.13929,-0.131959 -0.219931,-0.322566 -0.08064,-0.197939 -0.08064,-0.461857 0,-0.359222 0.13929,-0.747767 0.146621,-0.395877 0.337229,-0.76243 0.190607,-0.366553 0.381215,-0.667126 0.190607,-0.307904 0.27858,-0.491181 0.08797,-0.183276 0.08797,-0.315235 0,-0.0953 -0.06598,-0.168614 -0.05865,-0.07331 -0.153952,-0.13929 -0.08797,-0.07331 -0.190608,-0.146622 -0.0953,-0.08064 -0.161283,-0.190607 -0.183276,0.293242 -0.373884,0.593815 -0.168614,0.256587 -0.366552,0.579154 -0.197939,0.315235 -0.381215,0.623139 l -0.263918,-0.205269 1.568845,-2.455903 0.212601,0.109965 q -0.01466,0.04399 -0.05132,0.13929 -0.02933,0.0953 -0.02933,0.20527 0,0.08064 0.02199,0.161283 0.02932,0.07331 0.109965,0.13929 0.293243,0.263918 0.461857,0.410539 0.168614,0.13929 0.241925,0.227263 0.08064,0.08064 0.0953,0.13929 0.02199,0.05132 0.02199,0.13929 0,0.08797 -0.02933,0.212601 -0.02932,0.124628 -0.102634,0.300573 -0.06598,0.175945 -0.190608,0.41787 -0.117297,0.234594 -0.300573,0.549829 -0.109966,0.190608 -0.219932,0.388546 -0.102635,0.190607 -0.190607,0.388546 -0.08064,0.197938 -0.131959,0.395877 -0.05132,0.197938 -0.05132,0.381215 0,0.13929 0.03666,0.227262 0.04399,0.08064 0.109966,0.124628 0.06598,0.04399 0.13929,0.05865 0.08064,0.01466 0.153952,0.01466 0.241925,0 0.476518,-0.13929 0.241925,-0.146621 0.469188,-0.373884 0.234594,-0.227263 0.447194,-0.513174 0.219932,-0.293242 0.41787,-0.593815 0.197939,-0.300573 0.366553,-0.571822 0.168614,-0.278581 0.300573,-0.48385 z"
         id="path2276" />
      <path
         d="m 36.953772,14.476824 q 0,0.146621 -0.07331,0.307904 -0.07331,0.153952 -0.190607,0.27858 -0.109966,0.124628 -0.249256,0.20527 -0.13929,0.08064 -0.27858,0.08064 -0.124628,0 -0.190607,-0.08797 -0.06598,-0.0953 -0.06598,-0.227263 0,-0.117297 0.04399,-0.27858 0.04399,-0.161283 0.131958,-0.300573 0.08797,-0.146621 0.212601,-0.249256 0.124628,-0.102635 0.285911,-0.102635 0.153952,0 0.263918,0.117297 0.109966,0.117297 0.109966,0.256587 z m -1.370907,1.627494 q -0.0953,0.190607 -0.271249,0.505843 -0.168615,0.307904 -0.366553,0.681788 -0.197938,0.366553 -0.403208,0.777092 -0.20527,0.403208 -0.373884,0.791754 -0.161283,0.381214 -0.263918,0.718443 -0.102635,0.337228 -0.102635,0.571822 0,0.212601 0.08797,0.293242 0.08797,0.07331 0.249256,0.07331 0.300573,0 0.586484,-0.197939 0.285912,-0.197938 0.564492,-0.513173 0.285911,-0.322567 0.55716,-0.733106 0.271249,-0.410539 0.542498,-0.828409 l 0.263918,0.205269 q -0.212601,0.381215 -0.48385,0.813748 -0.263918,0.432532 -0.593815,0.806416 -0.329898,0.366552 -0.725775,0.608477 -0.395877,0.241925 -0.865064,0.241925 -0.439863,0 -0.674457,-0.263918 -0.234594,-0.263918 -0.234594,-0.681788 0,-0.491181 0.227263,-1.026348 0.227262,-0.535167 0.564491,-1.055672 0.34456,-0.527836 0.740436,-1.011685 0.403209,-0.48385 0.740437,-0.879727 z"
         id="path2278" />
      <path
         d="m 40.26741,18.171675 q -0.117297,-0.256587 -0.183276,-0.535167 -0.05865,-0.27858 -0.05865,-0.579153 0,-0.388546 0.06598,-0.652464 0.07331,-0.271249 0.175945,-0.432532 0.102635,-0.168614 0.219932,-0.241925 0.124628,-0.07331 0.234594,-0.07331 0.0953,0 0.175945,0.04399 0.08797,0.03665 0.153952,0.131959 0.06598,0.0953 0.102635,0.249256 0.04399,0.153952 0.04399,0.381215 0,0.527836 -0.212601,1.084996 -0.205269,0.55716 -0.55716,1.077665 -0.344559,0.520505 -0.799085,0.982361 -0.454525,0.461857 -0.938375,0.813747 -0.131959,0.0953 -0.307904,0.20527 -0.168614,0.102634 -0.366553,0.197938 -0.190607,0.08797 -0.403208,0.153952 -0.205269,0.05865 -0.403208,0.05865 -0.49118,0 -0.806416,-0.366553 -0.307904,-0.373884 -0.307904,-1.04101 0,-0.307904 0.08797,-0.659795 0.08797,-0.35189 0.241924,-0.718443 0.153953,-0.373884 0.359222,-0.747768 0.20527,-0.373883 0.432532,-0.711112 0.234594,-0.344559 0.48385,-0.645133 0.249256,-0.300573 0.491181,-0.527836 l 0.322566,0.212601 q -0.425201,0.645133 -0.733105,1.25361 -0.307905,0.601147 -0.513174,1.136314 -0.197939,0.535167 -0.300573,0.982361 -0.0953,0.439863 -0.0953,0.76243 0,0.373884 0.0953,0.535167 0.102634,0.153952 0.285911,0.153952 0.175945,0 0.483849,-0.124628 0.315236,-0.131959 0.725775,-0.41787 0.520505,-0.366553 0.989692,-0.865065 0.476519,-0.505842 0.813747,-1.077665 z m 0.234594,-0.366552 q 0.146621,-0.329898 0.227263,-0.681788 0.08797,-0.359222 0.08797,-0.674457 0,-0.219932 -0.03666,-0.315236 -0.03665,-0.0953 -0.05865,-0.109966 -0.0073,0 -0.05865,0.04399 -0.05132,0.04399 -0.117297,0.161283 -0.05865,0.109966 -0.109966,0.315235 -0.04399,0.197939 -0.04399,0.513174 0,0.183276 0.02199,0.388546 0.02932,0.205269 0.08797,0.359222 z"
         id="path2280" />
      <path
         d="m 45.773032,18.985422 q 0.02932,0.0073 0.05865,0.0073 0.02933,0 0.06598,0 0.205269,0 0.373884,-0.03665 0.168614,-0.04399 0.307904,-0.131959 0.146621,-0.08797 0.27858,-0.227262 0.131959,-0.146622 0.256587,-0.351891 l 0.263918,0.205269 q -0.351891,0.498512 -0.725775,0.696451 -0.373883,0.197938 -0.791753,0.197938 -0.153953,0 -0.271249,-0.02932 -0.315236,0.527836 -0.674457,0.90172 -0.359222,0.366552 -0.733106,0.601146 -0.373884,0.234594 -0.740436,0.337229 -0.366553,0.109965 -0.681789,0.109965 -0.322566,0 -0.601146,-0.117296 -0.271249,-0.109966 -0.469188,-0.322567 -0.197938,-0.2126 -0.307904,-0.505843 -0.109966,-0.293242 -0.109966,-0.659795 0,-0.366552 0.117297,-0.747767 0.117297,-0.381215 0.315236,-0.755099 0.205269,-0.373884 0.476518,-0.718443 0.271249,-0.351891 0.586485,-0.652464 0.315235,-0.300573 0.652463,-0.542498 0.337229,-0.241925 0.674457,-0.395877 l 0.234594,0.307904 q -0.388546,0.27858 -0.791754,0.703782 -0.395877,0.425201 -0.725774,0.931044 -0.322567,0.505842 -0.535167,1.055671 -0.20527,0.542498 -0.20527,1.055672 0,0.461857 0.20527,0.718444 0.205269,0.249255 0.62314,0.249255 0.322566,0 0.637801,-0.131959 0.315236,-0.131958 0.615809,-0.359221 0.300573,-0.227263 0.579153,-0.535167 0.27858,-0.315236 0.527836,-0.667126 -0.2126,-0.124628 -0.373884,-0.329898 -0.161283,-0.2126 -0.271249,-0.476518 -0.109966,-0.271249 -0.168614,-0.579153 -0.05132,-0.307905 -0.05132,-0.630471 0,-0.322567 0.08064,-0.608478 0.08064,-0.285911 0.219932,-0.498511 0.146621,-0.219932 0.337228,-0.34456 0.190608,-0.124628 0.417871,-0.124628 0.205269,0 0.366552,0.109966 0.161283,0.102635 0.271249,0.293242 0.109966,0.183276 0.168615,0.439863 0.05865,0.256587 0.05865,0.549829 0,0.219932 -0.03666,0.48385 -0.03666,0.263918 -0.109966,0.535167 -0.06598,0.263918 -0.168614,0.527836 -0.0953,0.256587 -0.227263,0.461856 z M 44.776009,17.15999 q 0,0.2126 0.03665,0.461856 0.03666,0.249256 0.117297,0.48385 0.08064,0.234594 0.205269,0.439863 0.124628,0.197939 0.307904,0.315236 0.131959,-0.256587 0.219932,-0.520505 0.0953,-0.271249 0.153952,-0.520505 0.06598,-0.249256 0.08797,-0.461857 0.02932,-0.219931 0.02932,-0.381215 0,-0.219931 -0.03665,-0.403208 -0.03666,-0.183276 -0.102635,-0.315235 -0.05865,-0.13929 -0.153952,-0.2126 -0.08797,-0.08064 -0.197939,-0.08064 -0.146621,0 -0.271249,0.102635 -0.124627,0.0953 -0.2126,0.263918 -0.08797,0.161283 -0.13929,0.381214 -0.04399,0.212601 -0.04399,0.447195 z"
         id="path2282" />
      <path
         d="m 52.422298,10.312785 q 0.256587,0 0.425201,0.124628 0.175946,0.124628 0.175946,0.454525 0,0.227263 -0.0953,0.542498 -0.08797,0.315235 -0.249256,0.689119 -0.153952,0.366553 -0.366553,0.777092 -0.2126,0.403208 -0.461856,0.806416 -0.241925,0.403208 -0.513174,0.784423 -0.263918,0.381215 -0.527836,0.703781 -0.527836,0.652464 -0.916382,1.099658 -0.381215,0.447195 -0.659795,0.76243 -0.27858,0.307904 -0.469187,0.505843 -0.190608,0.190607 -0.337229,0.329897 -0.146621,0.13929 -0.271249,0.256587 -0.124628,0.109966 -0.256587,0.249256 -0.05865,0.27858 -0.05865,0.535167 0.0073,0.249256 0.0073,0.461856 0,0.637802 0.205269,0.945707 0.20527,0.307904 0.579154,0.307904 0.249256,0 0.498512,-0.124628 0.256586,-0.131959 0.505842,-0.337229 0.249256,-0.205269 0.48385,-0.461856 0.234594,-0.263918 0.439863,-0.527836 0.212601,-0.271249 0.381215,-0.520505 0.168614,-0.249256 0.293242,-0.432532 l 0.271249,0.205269 q -0.02199,0.02933 -0.146621,0.234594 -0.117297,0.197939 -0.315235,0.48385 -0.197939,0.285911 -0.469188,0.615808 -0.271249,0.322567 -0.586484,0.601147 -0.315235,0.27858 -0.667126,0.461856 -0.34456,0.183277 -0.703781,0.183277 -0.300574,0 -0.579154,-0.109966 -0.271249,-0.117297 -0.483849,-0.359222 -0.20527,-0.249256 -0.337229,-0.630471 -0.124628,-0.381214 -0.124628,-0.916381 0,-0.667126 0.153952,-1.392901 0.161284,-0.733105 0.432533,-1.466211 0.271249,-0.740436 0.637801,-1.45888 0.366553,-0.718443 0.777092,-1.363576 0.41787,-0.652464 0.865065,-1.202293 0.454525,-0.55716 0.887057,-0.960368 0.439864,-0.403208 0.843072,-0.630471 0.403208,-0.227262 0.733105,-0.227262 z m -4.391302,7.433689 q 0.62314,-0.645133 1.202293,-1.304928 0.586485,-0.667126 1.092327,-1.312258 0.513174,-0.652464 0.938375,-1.260942 0.425202,-0.615808 0.725775,-1.158306 0.300573,-0.542498 0.469187,-0.989693 0.168615,-0.447194 0.168615,-0.76976 0,-0.05865 -0.05865,-0.153953 -0.05865,-0.102634 -0.13929,-0.102634 -0.227263,0 -0.601146,0.300573 -0.373884,0.300573 -0.813747,0.821078 -0.432533,0.513174 -0.90172,1.202293 -0.461857,0.689119 -0.872396,1.473542 -0.410539,0.784423 -0.733105,1.620163 -0.322567,0.83574 -0.476519,1.634825 z"
         id="path2284" />
      <path
         d="m 55.369384,18.985422 q 0.02932,0.0073 0.05865,0.0073 0.02932,0 0.06598,0 0.20527,0 0.373884,-0.03665 0.168615,-0.04399 0.307905,-0.131959 0.146621,-0.08797 0.27858,-0.227262 0.131959,-0.146622 0.256587,-0.351891 l 0.263918,0.205269 q -0.351891,0.498512 -0.725775,0.696451 -0.373884,0.197938 -0.791754,0.197938 -0.153952,0 -0.271249,-0.02932 -0.315235,0.527836 -0.674457,0.90172 -0.359222,0.366552 -0.733105,0.601146 -0.373884,0.234594 -0.740437,0.337229 -0.366553,0.109965 -0.681788,0.109965 -0.322566,0 -0.601146,-0.117296 -0.271249,-0.109966 -0.469188,-0.322567 -0.197938,-0.2126 -0.307904,-0.505843 -0.109966,-0.293242 -0.109966,-0.659795 0,-0.366552 0.117297,-0.747767 0.117297,-0.381215 0.315235,-0.755099 0.20527,-0.373884 0.476519,-0.718443 0.271249,-0.351891 0.586484,-0.652464 0.315235,-0.300573 0.652464,-0.542498 0.337229,-0.241925 0.674457,-0.395877 l 0.234594,0.307904 q -0.388546,0.27858 -0.791754,0.703782 -0.395877,0.425201 -0.725775,0.931044 -0.322566,0.505842 -0.535167,1.055671 -0.205269,0.542498 -0.205269,1.055672 0,0.461857 0.205269,0.718444 0.20527,0.249255 0.62314,0.249255 0.322567,0 0.637802,-0.131959 0.315235,-0.131958 0.615808,-0.359221 0.300574,-0.227263 0.579154,-0.535167 0.27858,-0.315236 0.527836,-0.667126 -0.212601,-0.124628 -0.373884,-0.329898 -0.161283,-0.2126 -0.271249,-0.476518 -0.109966,-0.271249 -0.168614,-0.579153 -0.05132,-0.307905 -0.05132,-0.630471 0,-0.322567 0.08064,-0.608478 0.08064,-0.285911 0.219932,-0.498511 0.146621,-0.219932 0.337228,-0.34456 0.190607,-0.124628 0.41787,-0.124628 0.20527,0 0.366553,0.109966 0.161283,0.102635 0.271249,0.293242 0.109966,0.183276 0.168614,0.439863 0.05865,0.256587 0.05865,0.549829 0,0.219932 -0.03666,0.48385 -0.03665,0.263918 -0.109965,0.535167 -0.06598,0.263918 -0.168615,0.527836 -0.0953,0.256587 -0.227262,0.461856 z M 54.37236,17.15999 q 0,0.2126 0.03665,0.461856 0.03666,0.249256 0.117297,0.48385 0.08064,0.234594 0.20527,0.439863 0.124628,0.197939 0.307904,0.315236 0.131959,-0.256587 0.219932,-0.520505 0.0953,-0.271249 0.153952,-0.520505 0.06598,-0.249256 0.08797,-0.461857 0.02932,-0.219931 0.02932,-0.381215 0,-0.219931 -0.03666,-0.403208 -0.03666,-0.183276 -0.102634,-0.315235 -0.05865,-0.13929 -0.153952,-0.2126 -0.08797,-0.08064 -0.197939,-0.08064 -0.146621,0 -0.271249,0.102635 -0.124628,0.0953 -0.212601,0.263918 -0.08797,0.161283 -0.13929,0.381214 -0.04399,0.212601 -0.04399,0.447195 z"
         id="path2286" />
    </g>
    <g
       aria-label="Co."
       id="text2731-3"
       style="font-size:7.96264px;line-height:1.25;font-family:Parisienne;-inkscape-font-specification:Parisienne;fill:#ff0000;stroke-width:0.264583">
      <path
         d="m 50.070844,21.43379 q 0.0039,0.0078 0.05832,0.05443 0.05443,0.04277 0.151632,0.0972 0.101088,0.05443 0.244944,0.0972 0.143857,0.04277 0.326593,0.04277 0.307153,0 0.579313,-0.11664 0.272161,-0.11664 0.501553,-0.307153 0.233281,-0.190512 0.416017,-0.435456 0.186624,-0.244945 0.314929,-0.501553 0.128304,-0.256609 0.198288,-0.505441 0.06998,-0.248833 0.06998,-0.447121 0,-0.237169 -0.06998,-0.412129 -0.06998,-0.17496 -0.190512,-0.287713 -0.116641,-0.112752 -0.279937,-0.167184 -0.159408,-0.05443 -0.346033,-0.05443 -0.36936,0 -0.734833,0.132192 -0.361585,0.128304 -0.703729,0.353809 -0.342145,0.225504 -0.657074,0.532657 -0.314928,0.303264 -0.587089,0.653185 -0.27216,0.349921 -0.493777,0.730946 -0.221616,0.377136 -0.381025,0.750385 -0.15552,0.373249 -0.241056,0.727058 -0.08554,0.34992 -0.08554,0.645409 0,0.342145 0.0972,0.645409 0.101088,0.303265 0.299376,0.528769 0.198289,0.225505 0.493777,0.353809 0.299377,0.132192 0.695954,0.132192 0.353809,0 0.734833,-0.108864 0.381025,-0.108864 0.758162,-0.349921 0.381025,-0.241056 0.750385,-0.622081 0.369361,-0.384913 0.707618,-0.933122 l 0.139968,0.108864 q -0.365473,0.594866 -0.76205,0.999218 -0.396576,0.404353 -0.793153,0.649298 -0.396577,0.248832 -0.78149,0.353808 -0.384912,0.108865 -0.730945,0.108865 -0.497665,0 -0.87869,-0.178849 -0.381025,-0.17496 -0.637633,-0.462673 -0.256609,-0.287712 -0.388801,-0.653185 -0.128304,-0.369361 -0.128304,-0.750386 0,-0.326592 0.08942,-0.695953 0.09331,-0.369361 0.260497,-0.750385 0.167184,-0.381025 0.400464,-0.76205 0.237169,-0.381025 0.524881,-0.727057 0.291601,-0.349921 0.629858,-0.649298 0.338256,-0.299376 0.707617,-0.517105 0.373249,-0.221616 0.765938,-0.346032 0.396576,-0.128305 0.804817,-0.128305 0.256609,0 0.489889,0.07387 0.237169,0.06998 0.416017,0.225504 0.178848,0.15552 0.283825,0.400465 0.104976,0.241056 0.104976,0.583201 0,0.229392 -0.06998,0.497665 -0.06999,0.268272 -0.206065,0.540433 -0.132192,0.268273 -0.326592,0.520993 -0.190513,0.252721 -0.435457,0.447121 -0.241057,0.190512 -0.536545,0.307153 -0.291601,0.11664 -0.622082,0.11664 -0.353808,0 -0.618193,-0.11664 -0.260496,-0.120529 -0.447121,-0.295489 l 0.11664,-0.128304 z"
         id="path2289" />
      <path
         d="m 54.891974,23.055089 q 0.01555,0.0039 0.0311,0.0039 0.01555,0 0.03499,0 0.108864,0 0.198289,-0.01944 0.08942,-0.02333 0.163296,-0.06998 0.07776,-0.04666 0.147744,-0.120528 0.06998,-0.07776 0.13608,-0.186625 l 0.139969,0.108864 q -0.186625,0.264385 -0.384913,0.369361 -0.198288,0.104976 -0.419905,0.104976 -0.08165,0 -0.143856,-0.01555 -0.167184,0.279937 -0.357697,0.478225 -0.190512,0.194401 -0.388801,0.318817 -0.198288,0.124416 -0.392688,0.178848 -0.194401,0.05832 -0.361585,0.05832 -0.171072,0 -0.318817,-0.06221 -0.143856,-0.05832 -0.248832,-0.171072 -0.104976,-0.112752 -0.163297,-0.268273 -0.05832,-0.15552 -0.05832,-0.34992 0,-0.194401 0.06221,-0.396577 0.06221,-0.202177 0.167185,-0.400465 0.108864,-0.198288 0.25272,-0.381025 0.143857,-0.186624 0.311041,-0.346032 0.167184,-0.159409 0.346033,-0.287713 0.178848,-0.128304 0.357696,-0.209952 l 0.124417,0.163296 q -0.206065,0.147744 -0.419905,0.373249 -0.209953,0.225504 -0.384913,0.493777 -0.171072,0.268272 -0.283825,0.559873 -0.108864,0.287712 -0.108864,0.559873 0,0.244944 0.108864,0.381025 0.108865,0.132192 0.330481,0.132192 0.171072,0 0.338257,-0.06998 0.167184,-0.06998 0.326592,-0.190513 0.159409,-0.120528 0.307153,-0.283824 0.147744,-0.167184 0.279937,-0.353809 -0.112753,-0.0661 -0.198289,-0.17496 -0.08554,-0.112752 -0.143856,-0.252721 -0.05832,-0.143856 -0.08942,-0.307152 -0.02722,-0.163297 -0.02722,-0.334369 0,-0.171072 0.04277,-0.322705 0.04277,-0.151632 0.11664,-0.264384 0.07776,-0.11664 0.178848,-0.182737 0.101088,-0.0661 0.221617,-0.0661 0.108864,0 0.1944,0.05832 0.08554,0.05443 0.143856,0.155521 0.05832,0.0972 0.08943,0.23328 0.0311,0.136081 0.0311,0.291601 0,0.11664 -0.01944,0.256608 -0.01944,0.139969 -0.05832,0.283825 -0.03499,0.139968 -0.08942,0.279936 -0.05054,0.136081 -0.120528,0.244945 z m -0.528769,-0.968114 q 0,0.112752 0.01944,0.244944 0.01944,0.132193 0.06221,0.256609 0.04277,0.124416 0.108864,0.23328 0.0661,0.104977 0.163297,0.167185 0.06998,-0.13608 0.11664,-0.276049 0.05054,-0.143856 0.08165,-0.276048 0.03499,-0.132193 0.04666,-0.244945 0.01555,-0.11664 0.01555,-0.202176 0,-0.11664 -0.01944,-0.213841 -0.01944,-0.0972 -0.05443,-0.167184 -0.0311,-0.07387 -0.08165,-0.112752 -0.04666,-0.04277 -0.104976,-0.04277 -0.07776,0 -0.143857,0.05443 -0.0661,0.05054 -0.112752,0.139968 -0.04666,0.08554 -0.07387,0.202177 -0.02333,0.112752 -0.02333,0.237168 z"
         id="path2291" />
      <path
         d="m 56.248889,23.867683 q 0,0.11664 -0.08554,0.202176 -0.08165,0.08165 -0.202176,0.08165 -0.112752,0 -0.198288,-0.08165 -0.08165,-0.08554 -0.08165,-0.202176 0,-0.112753 0.08165,-0.194401 0.08554,-0.08554 0.198288,-0.08554 0.120528,0 0.202176,0.08554 0.08554,0.08165 0.08554,0.194401 z"
         id="path2293" />
    </g>
  </g>
</svg>
