<?xml version="1.0" encoding="UTF-8" standalone="no"?>
<!-- Created with Inkscape (http://www.inkscape.org/) -->

<svg
   width="256"
   height="128"
   viewBox="0 0 67.733332 33.866666"
   version="1.1"
   id="svg5"
   xml:space="preserve"
   inkscape:export-filename="lindamatic.png"
   inkscape:export-xdpi="96.0362"
   inkscape:export-ydpi="96.0362"
   inkscape:version="1.2 (dc2aedaf03, 2022-05-15)"
   sodipodi:docname="squid-airlines.svg"
   xmlns:inkscape="http://www.inkscape.org/namespaces/inkscape"
   xmlns:sodipodi="http://sodipodi.sourceforge.net/DTD/sodipodi-0.dtd"
   xmlns="http://www.w3.org/2000/svg"
   xmlns:svg="http://www.w3.org/2000/svg"><sodipodi:namedview
     id="namedview7"
     pagecolor="#505050"
     bordercolor="#eeeeee"
     borderopacity="1"
     inkscape:showpageshadow="0"
     inkscape:pageopacity="0"
     inkscape:pagecheckerboard="0"
     inkscape:deskcolor="#505050"
     inkscape:document-units="mm"
     showgrid="true"
     inkscape:zoom="3.7522727"
     inkscape:cx="111.2659"
     inkscape:cy="53.834041"
     inkscape:window-width="2560"
     inkscape:window-height="1369"
     inkscape:window-x="3832"
     inkscape:window-y="723"
     inkscape:window-maximized="1"
     inkscape:current-layer="layer1"><inkscape:grid
       type="xygrid"
       id="grid61"
       empspacing="4" /></sodipodi:namedview><defs
     id="defs2" /><g
     inkscape:label="Layer 1"
     inkscape:groupmode="layer"
     id="layer1"><path
       id="path1041"
       style="font-size:8.82323px;line-height:1.25;font-family:'IBM Plex Sans';-inkscape-font-specification:'IBM Plex Sans';stroke:#ffffff;stroke-width:0.52916667;stroke-opacity:1;stroke-dasharray:none"
       d="M 18.113623 11.204484 C 18.003864 11.208034 17.922652 11.238641 17.870227 11.295435 C 17.818967 11.351353 17.793229 11.42548 17.793229 11.518677 L 17.793229 11.609627 C 17.793229 11.702822 17.818967 11.780041 17.870227 11.840621 C 17.926145 11.896541 18.014688 11.924337 18.135844 11.924337 C 18.256998 11.924337 18.343483 11.896541 18.394743 11.840621 C 18.450663 11.780043 18.478459 11.702824 18.478459 11.609627 L 18.478459 11.518677 C 18.478459 11.425482 18.450663 11.351355 18.394743 11.295435 C 18.343485 11.234855 18.257 11.204484 18.135844 11.204484 C 18.128272 11.204484 18.12094 11.204247 18.113623 11.204484 z M 21.910291 11.204484 L 21.910291 13.357324 L 21.882385 13.357324 C 21.789189 13.128992 21.651741 12.961172 21.470007 12.853996 C 21.292934 12.74216 21.078784 12.686047 20.827153 12.686047 C 20.60348 12.686047 20.400655 12.730319 20.218921 12.818856 C 20.037187 12.907393 19.881208 13.033516 19.750732 13.196611 C 19.624917 13.359705 19.527108 13.557381 19.45721 13.790373 C 19.39197 14.023365 19.359025 14.284361 19.359025 14.573271 C 19.359025 14.862181 19.39197 15.123176 19.45721 15.356169 C 19.527108 15.58916 19.624917 15.787353 19.750732 15.950448 C 19.881208 16.113542 20.037187 16.239148 20.218921 16.327686 C 20.400655 16.416222 20.60348 16.460494 20.827153 16.460494 C 21.311776 16.460494 21.663373 16.237079 21.882385 15.789734 L 21.910291 15.789734 L 21.910291 16.376778 L 22.46943 16.376778 L 22.46943 11.204484 L 21.910291 11.204484 z M 30.045194 11.204484 C 29.935435 11.208034 29.854223 11.238641 29.801799 11.295435 C 29.750539 11.351353 29.724801 11.42548 29.724801 11.518677 L 29.724801 11.609627 C 29.724801 11.702822 29.750539 11.780041 29.801799 11.840621 C 29.857716 11.896541 29.946259 11.924337 30.067415 11.924337 C 30.18857 11.924337 30.275054 11.896541 30.326314 11.840621 C 30.382234 11.780043 30.41003 11.702824 30.41003 11.609627 L 30.41003 11.518677 C 30.41003 11.425482 30.382234 11.351355 30.326314 11.295435 C 30.275056 11.234855 30.188571 11.204484 30.067415 11.204484 C 30.059843 11.204484 30.052512 11.204247 30.045194 11.204484 z M 34.100761 11.204484 L 34.100761 15.796452 C 34.100761 15.964206 34.149665 16.104229 34.247522 16.216064 C 34.350039 16.323241 34.49881 16.376778 34.694523 16.376778 L 35.191134 16.376778 L 35.191134 15.887402 L 34.6599 15.887402 L 34.6599 11.204484 L 34.100761 11.204484 z M 36.259285 11.204484 C 36.149525 11.208034 36.068314 11.238641 36.015889 11.295435 C 35.96463 11.351353 35.938892 11.42548 35.938892 11.518677 L 35.938892 11.609627 C 35.938892 11.702822 35.96463 11.780041 36.015889 11.840621 C 36.071807 11.896541 36.16035 11.924337 36.281506 11.924337 C 36.40266 11.924337 36.488629 11.896541 36.539889 11.840621 C 36.595808 11.780043 36.624121 11.702824 36.624121 11.609627 L 36.624121 11.518677 C 36.624121 11.425482 36.595808 11.351355 36.539889 11.295435 C 36.488631 11.234855 36.402662 11.204484 36.281506 11.204484 C 36.273934 11.204484 36.266603 11.204247 36.259285 11.204484 z M 7.2321167 11.413774 C 6.9944648 11.413774 6.7751657 11.444144 6.5747925 11.504724 C 6.3790791 11.560643 6.2092011 11.644552 6.0647461 11.756388 C 5.9249508 11.868225 5.8153013 12.008247 5.736084 12.176001 C 5.6568667 12.343755 5.6172282 12.534739 5.6172282 12.749093 C 5.6172282 13.12654 5.7335688 13.419966 5.9665609 13.629659 C 6.2042128 13.834691 6.5470603 13.988613 6.9944051 14.09113 L 7.3928304 14.18208 C 7.7143595 14.256638 7.9449826 14.356505 8.0847778 14.48232 C 8.2245731 14.608136 8.2945841 14.787796 8.2945841 15.020789 C 8.2945841 15.300379 8.2014083 15.523794 8.0150146 15.691549 C 7.8332808 15.859302 7.5676522 15.943213 7.2181641 15.943213 C 6.9339137 15.943213 6.6868169 15.885042 6.477124 15.768547 C 6.2674311 15.647391 6.0764465 15.47288 5.9040324 15.244548 L 5.4704671 15.607833 C 5.6661805 15.873444 5.9040114 16.08296 6.1836019 16.236735 C 6.4631924 16.38585 6.8008902 16.460494 7.1969767 16.460494 C 7.4579279 16.460494 7.6911258 16.425488 7.8961589 16.355591 C 8.1058517 16.285693 8.2829375 16.187885 8.4273926 16.062069 C 8.5718477 15.936253 8.6809805 15.782849 8.7555379 15.601115 C 8.8347552 15.419381 8.8743937 15.216556 8.8743937 14.992883 C 8.8743937 14.629416 8.767319 14.338048 8.5529663 14.119035 C 8.3386135 13.900022 7.9916499 13.736835 7.5116862 13.629659 L 7.1132609 13.538708 C 6.8057113 13.468811 6.5750883 13.375635 6.4213135 13.259139 C 6.2721986 13.137983 6.1975545 12.960898 6.1975545 12.727905 C 6.1975545 12.462294 6.2860974 12.264618 6.4631714 12.134143 C 6.6449052 11.999007 6.892002 11.931055 7.2042114 11.931055 C 7.4884617 11.931055 7.7257759 11.984592 7.9168294 12.091768 C 8.107883 12.198945 8.2710698 12.346177 8.4062052 12.532568 L 8.8464884 12.210624 C 8.6647546 11.949673 8.4413394 11.751997 8.1757284 11.616862 C 7.9147772 11.481726 7.6002443 11.413774 7.2321167 11.413774 z M 26.579773 11.498006 L 24.873934 16.376778 L 25.468213 16.376778 L 25.957589 14.937073 L 27.928528 14.937073 L 28.417904 16.376778 L 29.032853 16.376778 L 27.327531 11.498006 L 26.579773 11.498006 z M 26.921871 12.043193 L 26.957011 12.043193 L 27.781767 14.419792 L 26.097115 14.419792 L 26.921871 12.043193 z M 11.055139 12.686047 C 10.831467 12.686047 10.629158 12.730319 10.447424 12.818856 C 10.26569 12.907393 10.109195 13.033516 9.9787191 13.196611 C 9.8529034 13.359705 9.7550946 13.557381 9.6851969 13.790373 C 9.619959 14.023365 9.5875285 14.284361 9.5875285 14.573271 C 9.5875285 14.862181 9.619959 15.123176 9.6851969 15.356169 C 9.7550946 15.58916 9.8529034 15.787353 9.9787191 15.950448 C 10.109195 16.113542 10.26569 16.239148 10.447424 16.327686 C 10.629158 16.416222 10.831467 16.460494 11.055139 16.460494 C 11.539763 16.460494 11.891876 16.237079 12.110889 15.789734 L 12.138794 15.789734 L 12.138794 17.774626 L 12.697933 17.774626 L 12.697933 12.77028 L 12.138794 12.77028 L 12.138794 13.357324 L 12.110889 13.357324 C 12.017692 13.128992 11.880245 12.961172 11.698511 12.853996 C 11.521436 12.74216 11.30677 12.686047 11.055139 12.686047 z M 39.356771 12.686047 C 39.0865 12.686047 38.869776 12.746793 38.706681 12.867948 C 38.548247 12.989104 38.425215 13.152291 38.336678 13.357324 L 38.308256 13.357324 L 38.308256 12.77028 L 37.749117 12.77028 L 37.749117 16.376778 L 38.308256 16.376778 L 38.308256 13.874605 C 38.308256 13.758109 38.331936 13.657726 38.378536 13.573848 C 38.429795 13.485314 38.49723 13.413244 38.581108 13.357324 C 38.664984 13.301407 38.758161 13.259194 38.860677 13.231234 C 38.967854 13.203274 39.077503 13.189376 39.189339 13.189376 C 39.734541 13.189376 40.00686 13.513175 40.00686 14.160893 L 40.00686 16.376778 L 40.565999 16.376778 L 40.565999 14.063224 C 40.565999 13.625199 40.456866 13.287501 40.237854 13.049849 C 40.023502 12.807538 39.729558 12.686047 39.356771 12.686047 z M 43.075407 12.686047 C 42.828435 12.686047 42.60502 12.730319 42.404647 12.818856 C 42.208934 12.907393 42.038539 13.035574 41.894084 13.203328 C 41.754288 13.366423 41.645156 13.564616 41.565938 13.797607 C 41.49138 14.0306 41.4538 14.289021 41.4538 14.573271 C 41.4538 14.862181 41.49138 15.123176 41.565938 15.356169 C 41.645156 15.5845 41.754288 15.782693 41.894084 15.950448 C 42.038539 16.113542 42.208934 16.239148 42.404647 16.327686 C 42.60502 16.416222 42.828435 16.460494 43.075407 16.460494 C 43.415575 16.460494 43.709002 16.38585 43.955973 16.236735 C 44.202945 16.08296 44.384664 15.882709 44.50116 15.635738 L 44.102734 15.349451 C 44.009538 15.549824 43.87724 15.703228 43.704826 15.810404 C 43.537072 15.91758 43.338879 15.971118 43.110547 15.971118 C 42.942792 15.971118 42.791446 15.943322 42.656311 15.887402 C 42.525835 15.831484 42.413611 15.754782 42.320414 15.656925 C 42.231879 15.559069 42.162385 15.444787 42.111125 15.314311 C 42.064525 15.179176 42.040845 15.034521 42.040845 14.880745 L 42.040845 14.713314 L 44.633968 14.713314 L 44.633968 14.447697 C 44.633968 14.191405 44.596905 13.956149 44.522347 13.741797 C 44.45245 13.527444 44.350007 13.34315 44.214872 13.189376 C 44.079736 13.030941 43.91655 12.907393 43.725496 12.818856 C 43.534443 12.730319 43.317719 12.686047 43.075407 12.686047 z M 46.647282 12.686047 C 46.465548 12.686047 46.29567 12.709211 46.137236 12.755811 C 45.978801 12.797749 45.841354 12.863127 45.724858 12.951664 C 45.613024 13.040201 45.524481 13.151908 45.459241 13.287044 C 45.394001 13.417519 45.361056 13.57144 45.361056 13.748515 C 45.361056 13.916269 45.388851 14.060924 45.444771 14.18208 C 45.505349 14.303236 45.587201 14.405678 45.689718 14.489555 C 45.796894 14.568771 45.920442 14.634149 46.060238 14.685409 C 46.200033 14.732006 46.353438 14.767012 46.521191 14.790312 L 46.807996 14.83217 C 47.045647 14.869448 47.208834 14.938943 47.297371 15.041459 C 47.390568 15.139316 47.436898 15.258231 47.436898 15.398027 C 47.436898 15.58442 47.369461 15.729075 47.234326 15.831592 C 47.10385 15.934108 46.920074 15.985071 46.682422 15.985071 C 46.454089 15.985071 46.253322 15.938741 46.080908 15.845544 C 45.908494 15.747687 45.752515 15.61024 45.61272 15.433167 L 45.214294 15.754594 C 45.377389 15.968946 45.570948 16.141399 45.794621 16.271875 C 46.022953 16.39769 46.304539 16.460494 46.640047 16.460494 C 47.054773 16.460494 47.381147 16.360627 47.618799 16.160254 C 47.856451 15.959881 47.975366 15.684986 47.975366 15.335498 C 47.975366 15.060568 47.891456 14.83921 47.723702 14.671456 C 47.555947 14.499044 47.271787 14.382186 46.871041 14.321606 L 46.591471 14.279749 C 46.367799 14.24247 46.195346 14.184299 46.07419 14.105082 C 45.957694 14.025865 45.899524 13.897683 45.899524 13.72061 C 45.899524 13.548195 45.957694 13.413323 46.07419 13.315466 C 46.195346 13.21295 46.372432 13.161471 46.605424 13.161471 C 46.838416 13.161471 47.031459 13.2078 47.185234 13.300997 C 47.339009 13.389534 47.455866 13.489918 47.535083 13.601754 L 47.905603 13.266374 C 47.756488 13.084639 47.58146 12.942559 47.381087 12.840043 C 47.185374 12.737527 46.940852 12.686047 46.647282 12.686047 z M 13.851351 12.77028 L 13.851351 15.083834 C 13.851351 15.521859 13.961001 15.861615 14.180013 16.103927 C 14.399026 16.341578 14.69451 16.460494 15.067297 16.460494 C 15.216413 16.460494 15.347169 16.441963 15.459005 16.404683 C 15.570841 16.367407 15.666075 16.318502 15.745292 16.257922 C 15.824508 16.192684 15.889886 16.120615 15.941146 16.041398 C 15.997062 15.957521 16.043909 15.873611 16.081189 15.789734 L 16.109094 15.789734 L 16.109094 16.376778 L 16.668233 16.376778 L 16.668233 12.77028 L 16.109094 12.77028 L 16.109094 15.265218 C 16.109094 15.386374 16.083356 15.491391 16.032096 15.579928 C 15.985498 15.663803 15.92012 15.733814 15.836243 15.789734 C 15.757025 15.845651 15.66385 15.887348 15.556673 15.915308 C 15.454157 15.943268 15.347082 15.957166 15.235246 15.957166 C 14.685384 15.957166 14.41049 15.633367 14.41049 14.985649 L 14.41049 12.77028 L 13.851351 12.77028 z M 17.856274 12.77028 L 17.856274 16.376778 L 18.415413 16.376778 L 18.415413 12.77028 L 17.856274 12.77028 z M 29.787846 12.77028 L 29.787846 16.376778 L 30.346985 16.376778 L 30.346985 12.77028 L 29.787846 12.77028 z M 31.535543 12.77028 L 31.535543 16.376778 L 32.094682 16.376778 L 32.094682 13.930416 C 32.094682 13.758001 32.178592 13.615921 32.346346 13.504085 C 32.51876 13.387589 32.756074 13.329419 33.058964 13.329419 L 33.387626 13.329419 L 33.387626 12.77028 L 33.171102 12.77028 C 32.877532 12.77028 32.646908 12.837716 32.479154 12.972852 C 32.311402 13.107987 32.194545 13.261392 32.129305 13.433805 L 32.094682 13.433805 L 32.094682 12.77028 L 31.535543 12.77028 z M 36.001937 12.77028 L 36.001937 16.376778 L 36.561076 16.376778 L 36.561076 12.77028 L 36.001937 12.77028 z M 43.075407 13.154236 C 43.364317 13.154236 43.594941 13.252561 43.767354 13.448275 C 43.944429 13.639328 44.032971 13.895174 44.032971 14.216703 L 44.032971 14.293701 L 42.040845 14.293701 L 42.040845 14.245125 C 42.040845 14.086691 42.066583 13.942035 42.117843 13.81156 C 42.169101 13.676424 42.239112 13.560084 42.327649 13.462227 C 42.420845 13.364372 42.530495 13.289728 42.656311 13.238468 C 42.782127 13.182548 42.921632 13.154236 43.075407 13.154236 z M 11.209135 13.189376 C 11.33495 13.189376 11.453866 13.207906 11.565702 13.245186 C 11.682198 13.277804 11.782065 13.32465 11.865942 13.385229 C 11.949818 13.445807 12.015196 13.520452 12.061796 13.608988 C 12.113056 13.692866 12.138794 13.783467 12.138794 13.881323 L 12.138794 15.22336 C 12.138794 15.339856 12.113056 15.444872 12.061796 15.53807 C 12.015197 15.626604 11.94982 15.703307 11.865942 15.768547 C 11.782065 15.829124 11.682198 15.87597 11.565702 15.90859 C 11.453866 15.94121 11.33495 15.957166 11.209135 15.957166 C 10.892265 15.957166 10.643111 15.859357 10.461377 15.663643 C 10.279643 15.46327 10.188525 15.202274 10.188525 14.880745 L 10.188525 14.265796 C 10.188525 13.944266 10.279643 13.685846 10.461377 13.490133 C 10.643111 13.28976 10.892265 13.189376 11.209135 13.189376 z M 20.980632 13.189376 C 21.106447 13.189376 21.225363 13.207906 21.337199 13.245186 C 21.453695 13.277804 21.554078 13.32465 21.637956 13.385229 C 21.721832 13.445807 21.787209 13.520452 21.833809 13.608988 C 21.885069 13.692866 21.910291 13.783467 21.910291 13.881323 L 21.910291 15.22336 C 21.910291 15.339856 21.885069 15.444872 21.833809 15.53807 C 21.787211 15.626604 21.721833 15.703307 21.637956 15.768547 C 21.554078 15.829124 21.453695 15.87597 21.337199 15.90859 C 21.225363 15.94121 21.106447 15.957166 20.980632 15.957166 C 20.663762 15.957166 20.414607 15.859357 20.232874 15.663643 C 20.051139 15.46327 19.960539 15.202274 19.960539 14.880745 L 19.960539 14.265796 C 19.960539 13.944266 20.051139 13.685846 20.232874 13.490133 C 20.414607 13.28976 20.663762 13.189376 20.980632 13.189376 z M 27.225728 19.035014 C 26.831624 19.035014 26.472826 19.105715 26.149308 19.246887 C 25.82579 19.388058 25.549305 19.593842 25.319902 19.864421 C 25.090498 20.129117 24.91426 20.461273 24.790735 20.861259 C 24.66721 21.255363 24.605216 21.708602 24.605216 22.220349 C 24.605216 22.737978 24.66721 23.196506 24.790735 23.596493 C 24.920143 23.990596 25.09638 24.322752 25.319902 24.593331 C 25.543423 24.858027 25.8112 25.061424 26.122953 25.202596 C 26.44059 25.337885 26.78726 25.405168 27.163717 25.405168 C 27.634289 25.405168 28.016826 25.311243 28.310933 25.123014 C 28.610923 24.928903 28.799289 24.687769 28.875757 24.399544 L 28.902112 24.399544 L 28.902112 25.299231 L 29.590442 25.299231 L 29.590442 22.131982 L 27.507882 22.131982 L 27.507882 22.784656 L 28.866972 22.784656 L 28.866972 23.393404 C 28.866972 23.622808 28.825816 23.822786 28.743465 23.993368 C 28.661115 24.158068 28.546354 24.296569 28.3993 24.408329 C 28.258129 24.520092 28.0906 24.605308 27.896488 24.664128 C 27.70826 24.717068 27.508282 24.743709 27.296525 24.743709 C 27.002417 24.743709 26.737544 24.696747 26.502258 24.602633 C 26.266973 24.502636 26.066995 24.364135 25.902295 24.187671 C 25.743477 24.011206 25.620007 23.799617 25.531775 23.552568 C 25.443542 23.299635 25.399483 23.020248 25.399483 22.714376 L 25.399483 21.717021 C 25.399483 21.411149 25.443542 21.134664 25.531775 20.887614 C 25.620007 20.640564 25.743477 20.428975 25.902295 20.252511 C 26.066995 20.076046 26.261167 19.940965 26.484688 19.846851 C 26.708209 19.746854 26.955149 19.696472 27.225728 19.696472 C 27.61395 19.696472 27.946106 19.790913 28.222567 19.979142 C 28.50491 20.167371 28.717016 20.425922 28.858187 20.755322 L 29.466935 20.384802 C 29.266942 19.978934 28.981748 19.652584 28.611174 19.405534 C 28.240598 19.158483 27.77865 19.035014 27.225728 19.035014 z M 5.7763916 19.140951 L 5.7763916 19.793624 L 7.7349284 19.793624 L 7.7349284 25.299231 L 8.4764852 25.299231 L 8.4764852 19.793624 L 10.435022 19.793624 L 10.435022 19.140951 L 5.7763916 19.140951 z M 11.449947 19.140951 L 11.449947 25.299231 L 12.190987 25.299231 L 12.190987 22.511287 L 15.305526 22.511287 L 15.305526 25.299231 L 16.046566 25.299231 L 16.046566 19.140951 L 15.305526 19.140951 L 15.305526 21.858614 L 12.190987 21.858614 L 12.190987 19.140951 L 11.449947 19.140951 z M 17.687809 19.140951 L 17.687809 25.299231 L 21.446236 25.299231 L 21.446236 24.646558 L 18.428849 24.646558 L 18.428849 22.511287 L 21.27002 22.511287 L 21.27002 21.858614 L 18.428849 21.858614 L 18.428849 19.793624 L 21.446236 19.793624 L 21.446236 19.140951 L 17.687809 19.140951 z M 32.581474 19.140951 L 30.428634 25.299231 L 31.178459 25.299231 L 31.795992 23.481771 L 34.284212 23.481771 L 34.901746 25.299231 L 35.678442 25.299231 L 33.525602 19.140951 L 32.581474 19.140951 z M 36.701636 19.140951 L 36.701636 25.299231 L 37.425106 25.299231 L 37.425106 20.111434 L 37.469548 20.111434 L 37.989929 21.143929 L 39.463741 23.825936 L 40.937036 21.143929 L 41.457418 20.111434 L 41.50186 20.111434 L 41.50186 25.299231 L 42.22533 25.299231 L 42.22533 19.140951 L 41.272416 19.140951 L 39.498881 22.458577 L 39.454439 22.458577 L 37.690206 19.140951 L 36.701636 19.140951 z M 43.866573 19.140951 L 43.866573 25.299231 L 47.625 25.299231 L 47.625 24.646558 L 44.607613 24.646558 L 44.607613 22.511287 L 47.448783 22.511287 L 47.448783 21.858614 L 44.607613 21.858614 L 44.607613 19.793624 L 47.625 19.793624 L 47.625 19.140951 L 43.866573 19.140951 z M 33.013489 19.828764 L 33.057931 19.828764 L 34.099211 22.829097 L 31.972725 22.829097 L 33.013489 19.828764 z " /><path
       id="path1005"
       style="font-size:8.82323px;line-height:1.25;font-family:'IBM Plex Sans';-inkscape-font-specification:'IBM Plex Sans';stroke:none;stroke-width:0.132292"
       d="M 18.113623 11.204484 C 18.003864 11.208034 17.922652 11.238641 17.870227 11.295435 C 17.818967 11.351353 17.793229 11.42548 17.793229 11.518677 L 17.793229 11.609627 C 17.793229 11.702822 17.818967 11.780041 17.870227 11.840621 C 17.926145 11.896541 18.014688 11.924337 18.135844 11.924337 C 18.256998 11.924337 18.343483 11.896541 18.394743 11.840621 C 18.450663 11.780043 18.478459 11.702824 18.478459 11.609627 L 18.478459 11.518677 C 18.478459 11.425482 18.450663 11.351355 18.394743 11.295435 C 18.343485 11.234855 18.257 11.204484 18.135844 11.204484 C 18.128272 11.204484 18.12094 11.204247 18.113623 11.204484 z M 21.910291 11.204484 L 21.910291 13.357324 L 21.882385 13.357324 C 21.789189 13.128992 21.651741 12.961172 21.470007 12.853996 C 21.292934 12.74216 21.078784 12.686047 20.827153 12.686047 C 20.60348 12.686047 20.400655 12.730319 20.218921 12.818856 C 20.037187 12.907393 19.881208 13.033516 19.750732 13.196611 C 19.624917 13.359705 19.527108 13.557381 19.45721 13.790373 C 19.39197 14.023365 19.359025 14.284361 19.359025 14.573271 C 19.359025 14.862181 19.39197 15.123176 19.45721 15.356169 C 19.527108 15.58916 19.624917 15.787353 19.750732 15.950448 C 19.881208 16.113542 20.037187 16.239148 20.218921 16.327686 C 20.400655 16.416222 20.60348 16.460494 20.827153 16.460494 C 21.311776 16.460494 21.663373 16.237079 21.882385 15.789734 L 21.910291 15.789734 L 21.910291 16.376778 L 22.46943 16.376778 L 22.46943 11.204484 L 21.910291 11.204484 z M 30.045194 11.204484 C 29.935435 11.208034 29.854223 11.238641 29.801799 11.295435 C 29.750539 11.351353 29.724801 11.42548 29.724801 11.518677 L 29.724801 11.609627 C 29.724801 11.702822 29.750539 11.780041 29.801799 11.840621 C 29.857716 11.896541 29.946259 11.924337 30.067415 11.924337 C 30.18857 11.924337 30.275054 11.896541 30.326314 11.840621 C 30.382234 11.780043 30.41003 11.702824 30.41003 11.609627 L 30.41003 11.518677 C 30.41003 11.425482 30.382234 11.351355 30.326314 11.295435 C 30.275056 11.234855 30.188571 11.204484 30.067415 11.204484 C 30.059843 11.204484 30.052512 11.204247 30.045194 11.204484 z M 34.100761 11.204484 L 34.100761 15.796452 C 34.100761 15.964206 34.149665 16.104229 34.247522 16.216064 C 34.350039 16.323241 34.49881 16.376778 34.694523 16.376778 L 35.191134 16.376778 L 35.191134 15.887402 L 34.6599 15.887402 L 34.6599 11.204484 L 34.100761 11.204484 z M 36.259285 11.204484 C 36.149525 11.208034 36.068314 11.238641 36.015889 11.295435 C 35.96463 11.351353 35.938892 11.42548 35.938892 11.518677 L 35.938892 11.609627 C 35.938892 11.702822 35.96463 11.780041 36.015889 11.840621 C 36.071807 11.896541 36.16035 11.924337 36.281506 11.924337 C 36.40266 11.924337 36.488629 11.896541 36.539889 11.840621 C 36.595808 11.780043 36.624121 11.702824 36.624121 11.609627 L 36.624121 11.518677 C 36.624121 11.425482 36.595808 11.351355 36.539889 11.295435 C 36.488631 11.234855 36.402662 11.204484 36.281506 11.204484 C 36.273934 11.204484 36.266603 11.204247 36.259285 11.204484 z M 7.2321167 11.413774 C 6.9944648 11.413774 6.7751657 11.444144 6.5747925 11.504724 C 6.3790791 11.560643 6.2092011 11.644552 6.0647461 11.756388 C 5.9249508 11.868225 5.8153013 12.008247 5.736084 12.176001 C 5.6568667 12.343755 5.6172282 12.534739 5.6172282 12.749093 C 5.6172282 13.12654 5.7335688 13.419966 5.9665609 13.629659 C 6.2042128 13.834691 6.5470603 13.988613 6.9944051 14.09113 L 7.3928304 14.18208 C 7.7143595 14.256638 7.9449826 14.356505 8.0847778 14.48232 C 8.2245731 14.608136 8.2945841 14.787796 8.2945841 15.020789 C 8.2945841 15.300379 8.2014083 15.523794 8.0150146 15.691549 C 7.8332808 15.859302 7.5676522 15.943213 7.2181641 15.943213 C 6.9339137 15.943213 6.6868169 15.885042 6.477124 15.768547 C 6.2674311 15.647391 6.0764465 15.47288 5.9040324 15.244548 L 5.4704671 15.607833 C 5.6661805 15.873444 5.9040114 16.08296 6.1836019 16.236735 C 6.4631924 16.38585 6.8008902 16.460494 7.1969767 16.460494 C 7.4579279 16.460494 7.6911258 16.425488 7.8961589 16.355591 C 8.1058517 16.285693 8.2829375 16.187885 8.4273926 16.062069 C 8.5718477 15.936253 8.6809805 15.782849 8.7555379 15.601115 C 8.8347552 15.419381 8.8743937 15.216556 8.8743937 14.992883 C 8.8743937 14.629416 8.767319 14.338048 8.5529663 14.119035 C 8.3386135 13.900022 7.9916499 13.736835 7.5116862 13.629659 L 7.1132609 13.538708 C 6.8057113 13.468811 6.5750883 13.375635 6.4213135 13.259139 C 6.2721986 13.137983 6.1975545 12.960898 6.1975545 12.727905 C 6.1975545 12.462294 6.2860974 12.264618 6.4631714 12.134143 C 6.6449052 11.999007 6.892002 11.931055 7.2042114 11.931055 C 7.4884617 11.931055 7.7257759 11.984592 7.9168294 12.091768 C 8.107883 12.198945 8.2710698 12.346177 8.4062052 12.532568 L 8.8464884 12.210624 C 8.6647546 11.949673 8.4413394 11.751997 8.1757284 11.616862 C 7.9147772 11.481726 7.6002443 11.413774 7.2321167 11.413774 z M 26.579773 11.498006 L 24.873934 16.376778 L 25.468213 16.376778 L 25.957589 14.937073 L 27.928528 14.937073 L 28.417904 16.376778 L 29.032853 16.376778 L 27.327531 11.498006 L 26.579773 11.498006 z M 26.921871 12.043193 L 26.957011 12.043193 L 27.781767 14.419792 L 26.097115 14.419792 L 26.921871 12.043193 z M 11.055139 12.686047 C 10.831467 12.686047 10.629158 12.730319 10.447424 12.818856 C 10.26569 12.907393 10.109195 13.033516 9.9787191 13.196611 C 9.8529034 13.359705 9.7550946 13.557381 9.6851969 13.790373 C 9.619959 14.023365 9.5875285 14.284361 9.5875285 14.573271 C 9.5875285 14.862181 9.619959 15.123176 9.6851969 15.356169 C 9.7550946 15.58916 9.8529034 15.787353 9.9787191 15.950448 C 10.109195 16.113542 10.26569 16.239148 10.447424 16.327686 C 10.629158 16.416222 10.831467 16.460494 11.055139 16.460494 C 11.539763 16.460494 11.891876 16.237079 12.110889 15.789734 L 12.138794 15.789734 L 12.138794 17.774626 L 12.697933 17.774626 L 12.697933 12.77028 L 12.138794 12.77028 L 12.138794 13.357324 L 12.110889 13.357324 C 12.017692 13.128992 11.880245 12.961172 11.698511 12.853996 C 11.521436 12.74216 11.30677 12.686047 11.055139 12.686047 z M 39.356771 12.686047 C 39.0865 12.686047 38.869776 12.746793 38.706681 12.867948 C 38.548247 12.989104 38.425215 13.152291 38.336678 13.357324 L 38.308256 13.357324 L 38.308256 12.77028 L 37.749117 12.77028 L 37.749117 16.376778 L 38.308256 16.376778 L 38.308256 13.874605 C 38.308256 13.758109 38.331936 13.657726 38.378536 13.573848 C 38.429795 13.485314 38.49723 13.413244 38.581108 13.357324 C 38.664984 13.301407 38.758161 13.259194 38.860677 13.231234 C 38.967854 13.203274 39.077503 13.189376 39.189339 13.189376 C 39.734541 13.189376 40.00686 13.513175 40.00686 14.160893 L 40.00686 16.376778 L 40.565999 16.376778 L 40.565999 14.063224 C 40.565999 13.625199 40.456866 13.287501 40.237854 13.049849 C 40.023502 12.807538 39.729558 12.686047 39.356771 12.686047 z M 43.075407 12.686047 C 42.828435 12.686047 42.60502 12.730319 42.404647 12.818856 C 42.208934 12.907393 42.038539 13.035574 41.894084 13.203328 C 41.754288 13.366423 41.645156 13.564616 41.565938 13.797607 C 41.49138 14.0306 41.4538 14.289021 41.4538 14.573271 C 41.4538 14.862181 41.49138 15.123176 41.565938 15.356169 C 41.645156 15.5845 41.754288 15.782693 41.894084 15.950448 C 42.038539 16.113542 42.208934 16.239148 42.404647 16.327686 C 42.60502 16.416222 42.828435 16.460494 43.075407 16.460494 C 43.415575 16.460494 43.709002 16.38585 43.955973 16.236735 C 44.202945 16.08296 44.384664 15.882709 44.50116 15.635738 L 44.102734 15.349451 C 44.009538 15.549824 43.87724 15.703228 43.704826 15.810404 C 43.537072 15.91758 43.338879 15.971118 43.110547 15.971118 C 42.942792 15.971118 42.791446 15.943322 42.656311 15.887402 C 42.525835 15.831484 42.413611 15.754782 42.320414 15.656925 C 42.231879 15.559069 42.162385 15.444787 42.111125 15.314311 C 42.064525 15.179176 42.040845 15.034521 42.040845 14.880745 L 42.040845 14.713314 L 44.633968 14.713314 L 44.633968 14.447697 C 44.633968 14.191405 44.596905 13.956149 44.522347 13.741797 C 44.45245 13.527444 44.350007 13.34315 44.214872 13.189376 C 44.079736 13.030941 43.91655 12.907393 43.725496 12.818856 C 43.534443 12.730319 43.317719 12.686047 43.075407 12.686047 z M 46.647282 12.686047 C 46.465548 12.686047 46.29567 12.709211 46.137236 12.755811 C 45.978801 12.797749 45.841354 12.863127 45.724858 12.951664 C 45.613024 13.040201 45.524481 13.151908 45.459241 13.287044 C 45.394001 13.417519 45.361056 13.57144 45.361056 13.748515 C 45.361056 13.916269 45.388851 14.060924 45.444771 14.18208 C 45.505349 14.303236 45.587201 14.405678 45.689718 14.489555 C 45.796894 14.568771 45.920442 14.634149 46.060238 14.685409 C 46.200033 14.732006 46.353438 14.767012 46.521191 14.790312 L 46.807996 14.83217 C 47.045647 14.869448 47.208834 14.938943 47.297371 15.041459 C 47.390568 15.139316 47.436898 15.258231 47.436898 15.398027 C 47.436898 15.58442 47.369461 15.729075 47.234326 15.831592 C 47.10385 15.934108 46.920074 15.985071 46.682422 15.985071 C 46.454089 15.985071 46.253322 15.938741 46.080908 15.845544 C 45.908494 15.747687 45.752515 15.61024 45.61272 15.433167 L 45.214294 15.754594 C 45.377389 15.968946 45.570948 16.141399 45.794621 16.271875 C 46.022953 16.39769 46.304539 16.460494 46.640047 16.460494 C 47.054773 16.460494 47.381147 16.360627 47.618799 16.160254 C 47.856451 15.959881 47.975366 15.684986 47.975366 15.335498 C 47.975366 15.060568 47.891456 14.83921 47.723702 14.671456 C 47.555947 14.499044 47.271787 14.382186 46.871041 14.321606 L 46.591471 14.279749 C 46.367799 14.24247 46.195346 14.184299 46.07419 14.105082 C 45.957694 14.025865 45.899524 13.897683 45.899524 13.72061 C 45.899524 13.548195 45.957694 13.413323 46.07419 13.315466 C 46.195346 13.21295 46.372432 13.161471 46.605424 13.161471 C 46.838416 13.161471 47.031459 13.2078 47.185234 13.300997 C 47.339009 13.389534 47.455866 13.489918 47.535083 13.601754 L 47.905603 13.266374 C 47.756488 13.084639 47.58146 12.942559 47.381087 12.840043 C 47.185374 12.737527 46.940852 12.686047 46.647282 12.686047 z M 13.851351 12.77028 L 13.851351 15.083834 C 13.851351 15.521859 13.961001 15.861615 14.180013 16.103927 C 14.399026 16.341578 14.69451 16.460494 15.067297 16.460494 C 15.216413 16.460494 15.347169 16.441963 15.459005 16.404683 C 15.570841 16.367407 15.666075 16.318502 15.745292 16.257922 C 15.824508 16.192684 15.889886 16.120615 15.941146 16.041398 C 15.997062 15.957521 16.043909 15.873611 16.081189 15.789734 L 16.109094 15.789734 L 16.109094 16.376778 L 16.668233 16.376778 L 16.668233 12.77028 L 16.109094 12.77028 L 16.109094 15.265218 C 16.109094 15.386374 16.083356 15.491391 16.032096 15.579928 C 15.985498 15.663803 15.92012 15.733814 15.836243 15.789734 C 15.757025 15.845651 15.66385 15.887348 15.556673 15.915308 C 15.454157 15.943268 15.347082 15.957166 15.235246 15.957166 C 14.685384 15.957166 14.41049 15.633367 14.41049 14.985649 L 14.41049 12.77028 L 13.851351 12.77028 z M 17.856274 12.77028 L 17.856274 16.376778 L 18.415413 16.376778 L 18.415413 12.77028 L 17.856274 12.77028 z M 29.787846 12.77028 L 29.787846 16.376778 L 30.346985 16.376778 L 30.346985 12.77028 L 29.787846 12.77028 z M 31.535543 12.77028 L 31.535543 16.376778 L 32.094682 16.376778 L 32.094682 13.930416 C 32.094682 13.758001 32.178592 13.615921 32.346346 13.504085 C 32.51876 13.387589 32.756074 13.329419 33.058964 13.329419 L 33.387626 13.329419 L 33.387626 12.77028 L 33.171102 12.77028 C 32.877532 12.77028 32.646908 12.837716 32.479154 12.972852 C 32.311402 13.107987 32.194545 13.261392 32.129305 13.433805 L 32.094682 13.433805 L 32.094682 12.77028 L 31.535543 12.77028 z M 36.001937 12.77028 L 36.001937 16.376778 L 36.561076 16.376778 L 36.561076 12.77028 L 36.001937 12.77028 z M 43.075407 13.154236 C 43.364317 13.154236 43.594941 13.252561 43.767354 13.448275 C 43.944429 13.639328 44.032971 13.895174 44.032971 14.216703 L 44.032971 14.293701 L 42.040845 14.293701 L 42.040845 14.245125 C 42.040845 14.086691 42.066583 13.942035 42.117843 13.81156 C 42.169101 13.676424 42.239112 13.560084 42.327649 13.462227 C 42.420845 13.364372 42.530495 13.289728 42.656311 13.238468 C 42.782127 13.182548 42.921632 13.154236 43.075407 13.154236 z M 11.209135 13.189376 C 11.33495 13.189376 11.453866 13.207906 11.565702 13.245186 C 11.682198 13.277804 11.782065 13.32465 11.865942 13.385229 C 11.949818 13.445807 12.015196 13.520452 12.061796 13.608988 C 12.113056 13.692866 12.138794 13.783467 12.138794 13.881323 L 12.138794 15.22336 C 12.138794 15.339856 12.113056 15.444872 12.061796 15.53807 C 12.015197 15.626604 11.94982 15.703307 11.865942 15.768547 C 11.782065 15.829124 11.682198 15.87597 11.565702 15.90859 C 11.453866 15.94121 11.33495 15.957166 11.209135 15.957166 C 10.892265 15.957166 10.643111 15.859357 10.461377 15.663643 C 10.279643 15.46327 10.188525 15.202274 10.188525 14.880745 L 10.188525 14.265796 C 10.188525 13.944266 10.279643 13.685846 10.461377 13.490133 C 10.643111 13.28976 10.892265 13.189376 11.209135 13.189376 z M 20.980632 13.189376 C 21.106447 13.189376 21.225363 13.207906 21.337199 13.245186 C 21.453695 13.277804 21.554078 13.32465 21.637956 13.385229 C 21.721832 13.445807 21.787209 13.520452 21.833809 13.608988 C 21.885069 13.692866 21.910291 13.783467 21.910291 13.881323 L 21.910291 15.22336 C 21.910291 15.339856 21.885069 15.444872 21.833809 15.53807 C 21.787211 15.626604 21.721833 15.703307 21.637956 15.768547 C 21.554078 15.829124 21.453695 15.87597 21.337199 15.90859 C 21.225363 15.94121 21.106447 15.957166 20.980632 15.957166 C 20.663762 15.957166 20.414607 15.859357 20.232874 15.663643 C 20.051139 15.46327 19.960539 15.202274 19.960539 14.880745 L 19.960539 14.265796 C 19.960539 13.944266 20.051139 13.685846 20.232874 13.490133 C 20.414607 13.28976 20.663762 13.189376 20.980632 13.189376 z M 27.225728 19.035014 C 26.831624 19.035014 26.472826 19.105715 26.149308 19.246887 C 25.82579 19.388058 25.549305 19.593842 25.319902 19.864421 C 25.090498 20.129117 24.91426 20.461273 24.790735 20.861259 C 24.66721 21.255363 24.605216 21.708602 24.605216 22.220349 C 24.605216 22.737978 24.66721 23.196506 24.790735 23.596493 C 24.920143 23.990596 25.09638 24.322752 25.319902 24.593331 C 25.543423 24.858027 25.8112 25.061424 26.122953 25.202596 C 26.44059 25.337885 26.78726 25.405168 27.163717 25.405168 C 27.634289 25.405168 28.016826 25.311243 28.310933 25.123014 C 28.610923 24.928903 28.799289 24.687769 28.875757 24.399544 L 28.902112 24.399544 L 28.902112 25.299231 L 29.590442 25.299231 L 29.590442 22.131982 L 27.507882 22.131982 L 27.507882 22.784656 L 28.866972 22.784656 L 28.866972 23.393404 C 28.866972 23.622808 28.825816 23.822786 28.743465 23.993368 C 28.661115 24.158068 28.546354 24.296569 28.3993 24.408329 C 28.258129 24.520092 28.0906 24.605308 27.896488 24.664128 C 27.70826 24.717068 27.508282 24.743709 27.296525 24.743709 C 27.002417 24.743709 26.737544 24.696747 26.502258 24.602633 C 26.266973 24.502636 26.066995 24.364135 25.902295 24.187671 C 25.743477 24.011206 25.620007 23.799617 25.531775 23.552568 C 25.443542 23.299635 25.399483 23.020248 25.399483 22.714376 L 25.399483 21.717021 C 25.399483 21.411149 25.443542 21.134664 25.531775 20.887614 C 25.620007 20.640564 25.743477 20.428975 25.902295 20.252511 C 26.066995 20.076046 26.261167 19.940965 26.484688 19.846851 C 26.708209 19.746854 26.955149 19.696472 27.225728 19.696472 C 27.61395 19.696472 27.946106 19.790913 28.222567 19.979142 C 28.50491 20.167371 28.717016 20.425922 28.858187 20.755322 L 29.466935 20.384802 C 29.266942 19.978934 28.981748 19.652584 28.611174 19.405534 C 28.240598 19.158483 27.77865 19.035014 27.225728 19.035014 z M 5.7763916 19.140951 L 5.7763916 19.793624 L 7.7349284 19.793624 L 7.7349284 25.299231 L 8.4764852 25.299231 L 8.4764852 19.793624 L 10.435022 19.793624 L 10.435022 19.140951 L 5.7763916 19.140951 z M 11.449947 19.140951 L 11.449947 25.299231 L 12.190987 25.299231 L 12.190987 22.511287 L 15.305526 22.511287 L 15.305526 25.299231 L 16.046566 25.299231 L 16.046566 19.140951 L 15.305526 19.140951 L 15.305526 21.858614 L 12.190987 21.858614 L 12.190987 19.140951 L 11.449947 19.140951 z M 17.687809 19.140951 L 17.687809 25.299231 L 21.446236 25.299231 L 21.446236 24.646558 L 18.428849 24.646558 L 18.428849 22.511287 L 21.27002 22.511287 L 21.27002 21.858614 L 18.428849 21.858614 L 18.428849 19.793624 L 21.446236 19.793624 L 21.446236 19.140951 L 17.687809 19.140951 z M 32.581474 19.140951 L 30.428634 25.299231 L 31.178459 25.299231 L 31.795992 23.481771 L 34.284212 23.481771 L 34.901746 25.299231 L 35.678442 25.299231 L 33.525602 19.140951 L 32.581474 19.140951 z M 36.701636 19.140951 L 36.701636 25.299231 L 37.425106 25.299231 L 37.425106 20.111434 L 37.469548 20.111434 L 37.989929 21.143929 L 39.463741 23.825936 L 40.937036 21.143929 L 41.457418 20.111434 L 41.50186 20.111434 L 41.50186 25.299231 L 42.22533 25.299231 L 42.22533 19.140951 L 41.272416 19.140951 L 39.498881 22.458577 L 39.454439 22.458577 L 37.690206 19.140951 L 36.701636 19.140951 z M 43.866573 19.140951 L 43.866573 25.299231 L 47.625 25.299231 L 47.625 24.646558 L 44.607613 24.646558 L 44.607613 22.511287 L 47.448783 22.511287 L 47.448783 21.858614 L 44.607613 21.858614 L 44.607613 19.793624 L 47.625 19.793624 L 47.625 19.140951 L 43.866573 19.140951 z M 33.013489 19.828764 L 33.057931 19.828764 L 34.099211 22.829097 L 31.972725 22.829097 L 33.013489 19.828764 z " /><path
       style="fill:#fe5815;fill-opacity:1;stroke:none;stroke-width:0.3175px;stroke-linecap:butt;stroke-linejoin:miter;stroke-opacity:1"
       d="m 49.562816,12.271366 h 12.700001 l -11.430001,6.350002 5.715002,-10.1600017 0.9525,3.8099997 v 2.540002 l 0.952499,3.81 z"
       id="path559"
       sodipodi:nodetypes="cccccccc" /></g></svg>
